<svg xmlns="http://www.w3.org/2000/svg" xmlns:xlink="http://www.w3.org/1999/xlink" zoomAndPan="magnify" viewBox="0 0 280.5 181.5" preserveAspectRatio="xMidYMid meet" version="1.0">
<defs>
<filter x="0%" y="0%" width="100%" height="100%" id="211a2cebf8">
<feColorMatrix values="0 0 0 0 1 0 0 0 0 1 0 0 0 0 1 0 0 0 1 0" color-interpolation-filters="sRGB"/>
</filter>
<g/>
<mask id="0d8e707a2a">
<g filter="url(#211a2cebf8)">
<rect x="-28.05" width="336.6" fill="#000000" y="-18.15" height="217.8" fill-opacity="0.7"/>
</g>
</mask>
<clipPath id="441fb2eed8"><path d="M 4.734375 65.425781 L 129.304688 65.425781 L 129.304688 132.871094 L 4.734375 132.871094 Z M 4.734375 65.425781 " clip-rule="nonzero"/></clipPath><clipPath id="1933e66182"><path d="M 0.292969 0.0117188 L 133.386719 0.0117188 L 133.386719 127.203125 L 0.292969 127.203125 Z M 0.292969 0.0117188 " clip-rule="nonzero"/></clipPath><clipPath id="dd28d90329"><rect x="0" width="134" y="0" height="134"/></clipPath></defs><g fill="#5e6697" fill-opacity="1"><g transform="translate(31.518243, 150.589539)"><g><path d="M 6.5 -5.8125 L 5.40625 -5.84375 C 4.3125 -5.875 3.113281 -5.960938 1.8125 -6.109375 C 1.800781 -6.109375 1.785156 -6.125 1.765625 -6.15625 C 1.722656 -6.15625 1.691406 -6.171875 1.671875 -6.203125 C 1.648438 -6.234375 1.648438 -6.300781 1.671875 -6.40625 C 1.765625 -6.8125 1.910156 -7.023438 2.109375 -7.046875 C 3.148438 -7.179688 4.179688 -7.257812 5.203125 -7.28125 L 5.828125 -7.3125 L 9.9375 -7.3125 C 10.164062 -7.3125 10.390625 -7.289062 10.609375 -7.25 C 10.765625 -7.207031 10.785156 -6.984375 10.671875 -6.578125 C 10.546875 -6.160156 10.398438 -5.929688 10.234375 -5.890625 C 10.148438 -5.867188 10.070312 -5.859375 10 -5.859375 L 9.34375 -5.859375 C 8.4375 -5.828125 7.488281 -5.8125 6.5 -5.8125 Z M 6.5 -5.8125 "/></g></g></g><g fill="#5e6697" fill-opacity="1"><g transform="translate(47.551508, 150.589539)"><g/></g></g><g fill="#5e6697" fill-opacity="1"><g transform="translate(61.754651, 150.589539)"><g><path d="M 12.296875 -32.375 C 12.472656 -32.375 12.628906 -32.3125 12.765625 -32.1875 C 12.898438 -32.070312 12.976562 -31.941406 13 -31.796875 C 13.019531 -31.503906 13.007812 -31.21875 12.96875 -30.9375 C 12.945312 -30.644531 12.90625 -30.367188 12.84375 -30.109375 C 12.832031 -29.992188 12.828125 -29.890625 12.828125 -29.796875 C 12.117188 -26.597656 11.234375 -23.46875 10.171875 -20.40625 C 10.078125 -20.0625 10.03125 -19.710938 10.03125 -19.359375 C 10.070312 -18.929688 9.992188 -18.53125 9.796875 -18.15625 C 9.347656 -17.488281 8.984375 -16.796875 8.703125 -16.078125 C 6.898438 -10.921875 4.960938 -5.820312 2.890625 -0.78125 C 1.140625 3.519531 -0.835938 7.726562 -3.046875 11.84375 C -3.648438 12.925781 -4.296875 14 -4.984375 15.0625 C -5.316406 15.507812 -5.691406 15.929688 -6.109375 16.328125 C -6.484375 16.640625 -6.914062 16.726562 -7.40625 16.59375 C -7.90625 16.46875 -8.148438 16.140625 -8.140625 15.609375 C -8.078125 14.992188 -7.9375 14.390625 -7.71875 13.796875 C -6.445312 10.273438 -5.035156 6.804688 -3.484375 3.390625 C -0.640625 -3.078125 2.65625 -9.289062 6.40625 -15.25 C 7.09375 -16.382812 7.625 -17.566406 8 -18.796875 C 8.664062 -20.796875 9.289062 -22.804688 9.875 -24.828125 C 10.46875 -26.847656 10.976562 -28.882812 11.40625 -30.9375 C 11.46875 -31.269531 11.550781 -31.601562 11.65625 -31.9375 C 11.769531 -32.226562 11.984375 -32.375 12.296875 -32.375 Z M -5.34375 12.84375 C -3.519531 9.519531 -1.859375 6.128906 -0.359375 2.671875 C 1.140625 -0.785156 2.515625 -4.304688 3.765625 -7.890625 C 3.742188 -7.878906 3.726562 -7.847656 3.71875 -7.796875 C 3.65625 -7.765625 3.597656 -7.71875 3.546875 -7.65625 C 3.398438 -7.40625 3.257812 -7.160156 3.125 -6.921875 C 1.476562 -3.867188 -0.0390625 -0.753906 -1.4375 2.421875 C -2.84375 5.597656 -4.1875 8.789062 -5.46875 12 C -5.476562 12.039062 -5.484375 12.070312 -5.484375 12.09375 C -5.546875 12.1875 -5.578125 12.296875 -5.578125 12.421875 C -5.578125 12.554688 -5.5 12.695312 -5.34375 12.84375 Z M 70.921875 -33.109375 C 70.921875 -33.035156 70.882812 -32.957031 70.8125 -32.875 C 70.738281 -32.789062 70.648438 -32.726562 70.546875 -32.6875 C 70.453125 -32.65625 70.363281 -32.660156 70.28125 -32.703125 C 69.769531 -33.015625 69.226562 -33.222656 68.65625 -33.328125 C 68.09375 -33.429688 67.523438 -33.515625 66.953125 -33.578125 C 66.523438 -33.597656 66.109375 -33.648438 65.703125 -33.734375 C 64.171875 -33.960938 62.640625 -34.15625 61.109375 -34.3125 C 56.078125 -34.726562 51.03125 -34.953125 45.96875 -34.984375 C 41.09375 -35.046875 36.21875 -34.941406 31.34375 -34.671875 C 25.832031 -34.390625 20.335938 -33.976562 14.859375 -33.4375 C 9.816406 -32.976562 4.785156 -32.429688 -0.234375 -31.796875 C -0.535156 -31.753906 -0.859375 -31.710938 -1.203125 -31.671875 C -3.117188 -31.410156 -5.03125 -31.132812 -6.9375 -30.84375 C -8.851562 -30.550781 -10.765625 -30.191406 -12.671875 -29.765625 C -12.816406 -29.722656 -12.96875 -29.679688 -13.125 -29.640625 C -13.863281 -29.460938 -14.609375 -29.265625 -15.359375 -29.046875 C -16.109375 -28.835938 -16.828125 -28.554688 -17.515625 -28.203125 C -17.609375 -28.148438 -17.710938 -28.109375 -17.828125 -28.078125 C -17.984375 -28.054688 -18.128906 -28.0625 -18.265625 -28.09375 C -18.398438 -28.125 -18.507812 -28.207031 -18.59375 -28.34375 C -18.675781 -28.488281 -18.6875 -28.625 -18.625 -28.75 C -18.570312 -28.875 -18.472656 -28.976562 -18.328125 -29.0625 C -17.878906 -29.289062 -17.410156 -29.492188 -16.921875 -29.671875 C -15.703125 -30.078125 -14.472656 -30.421875 -13.234375 -30.703125 C -11.992188 -30.992188 -10.742188 -31.242188 -9.484375 -31.453125 C -5.859375 -32.066406 -2.234375 -32.601562 1.390625 -33.0625 C 5.015625 -33.53125 8.65625 -33.941406 12.3125 -34.296875 C 17.457031 -34.816406 22.601562 -35.234375 27.75 -35.546875 C 32.238281 -35.835938 36.726562 -36.007812 41.21875 -36.0625 C 44.507812 -36.09375 47.800781 -36.054688 51.09375 -35.953125 C 54.382812 -35.859375 57.671875 -35.664062 60.953125 -35.375 C 63.953125 -35.0625 66.929688 -34.601562 69.890625 -34 C 70.171875 -33.9375 70.425781 -33.835938 70.65625 -33.703125 C 70.851562 -33.554688 70.941406 -33.359375 70.921875 -33.109375 Z M 70.921875 -33.109375 "/></g></g></g><g fill="#5e6697" fill-opacity="1"><g transform="translate(75.650556, 150.589539)"><g><path d="M 6.40625 -8.203125 C 6.332031 -7.585938 6.046875 -7.1875 5.546875 -7 C 5.046875 -6.8125 4.878906 -7.054688 5.046875 -7.734375 C 5.222656 -8.410156 4.921875 -8.582031 4.140625 -8.25 C 3.359375 -7.914062 2.710938 -7.492188 2.203125 -6.984375 C 1.421875 -6.179688 0.726562 -5.316406 0.125 -4.390625 C 0.0625 -4.316406 0.0078125 -4.25 -0.03125 -4.1875 C -0.207031 -3.9375 -0.382812 -3.691406 -0.5625 -3.453125 C -0.675781 -3.296875 -0.8125 -3.195312 -0.96875 -3.15625 C -1.125 -3.113281 -1.28125 -3.109375 -1.4375 -3.140625 C -1.59375 -3.160156 -1.707031 -3.21875 -1.78125 -3.3125 C -1.863281 -3.40625 -1.875 -3.519531 -1.8125 -3.65625 C -1.71875 -3.894531 -1.601562 -4.140625 -1.46875 -4.390625 C -0.664062 -5.878906 0.144531 -7.375 0.96875 -8.875 C 0.988281 -8.882812 1 -8.898438 1 -8.921875 C 1.113281 -9.148438 1.253906 -9.363281 1.421875 -9.5625 C 1.597656 -9.757812 1.800781 -9.835938 2.03125 -9.796875 C 2.257812 -9.765625 2.414062 -9.628906 2.5 -9.390625 C 2.59375 -9.078125 2.675781 -8.898438 2.75 -8.859375 C 2.820312 -8.816406 2.984375 -8.847656 3.234375 -8.953125 C 3.765625 -9.148438 4.285156 -9.285156 4.796875 -9.359375 C 5.304688 -9.441406 5.722656 -9.421875 6.046875 -9.296875 C 6.367188 -9.179688 6.488281 -8.816406 6.40625 -8.203125 Z M 6.40625 -8.203125 "/></g></g></g><g fill="#5e6697" fill-opacity="1"><g transform="translate(86.43392, 150.589539)"><g><path d="M 0.328125 -2.359375 C -0.515625 -2.359375 -0.9375 -2.800781 -0.9375 -3.6875 C -0.9375 -4.757812 -0.238281 -6.660156 1.15625 -9.390625 C 1.21875 -9.503906 1.316406 -9.5625 1.453125 -9.5625 C 2.015625 -9.5625 2.296875 -9.335938 2.296875 -8.890625 C 2.296875 -8.734375 2.25 -8.539062 2.15625 -8.3125 C 2.113281 -8.25 1.644531 -7.070312 0.75 -4.78125 C 0.601562 -4.40625 0.53125 -4.128906 0.53125 -3.953125 C 0.53125 -3.753906 0.617188 -3.65625 0.796875 -3.65625 C 1.453125 -3.65625 3.160156 -5.273438 5.921875 -8.515625 C 6.273438 -8.953125 6.625 -9.171875 6.96875 -9.171875 C 7.476562 -9.171875 7.734375 -8.984375 7.734375 -8.609375 C 7.734375 -8.460938 7.578125 -7.921875 7.265625 -6.984375 C 6.835938 -5.710938 6.625 -4.976562 6.625 -4.78125 C 6.625 -4.488281 6.722656 -4.34375 6.921875 -4.34375 C 7.410156 -4.34375 8.835938 -5.210938 11.203125 -6.953125 C 11.335938 -7.078125 11.457031 -7.140625 11.5625 -7.140625 C 11.78125 -7.140625 11.890625 -6.953125 11.890625 -6.578125 C 11.890625 -6.472656 11.859375 -6.390625 11.796875 -6.328125 C 10.535156 -5.253906 9.46875 -4.4375 8.59375 -3.875 C 7.789062 -3.351562 7.078125 -3.09375 6.453125 -3.09375 L 6.265625 -3.09375 C 5.347656 -3.289062 4.890625 -4.007812 4.890625 -5.25 C 3.910156 -4.382812 3.097656 -3.6875 2.453125 -3.15625 C 1.804688 -2.625 1.097656 -2.359375 0.328125 -2.359375 Z M 0.328125 -2.359375 "/></g></g></g><g fill="#5e6697" fill-opacity="1"><g transform="translate(101.518723, 150.589539)"><g><path d="M 2.125 -3.171875 L 2.078125 -3.171875 C 0.785156 -3.179688 -0.0625 -3.460938 -0.46875 -4.015625 C -0.875 -4.578125 -0.859375 -5.320312 -0.421875 -6.25 C -0.046875 -6.957031 0.425781 -7.570312 1 -8.09375 C 1.195312 -8.269531 1.394531 -8.410156 1.59375 -8.515625 C 1.800781 -8.628906 2.035156 -8.6875 2.296875 -8.6875 C 2.453125 -8.707031 2.625 -8.679688 2.8125 -8.609375 C 2.875 -8.585938 2.9375 -8.5625 3 -8.53125 C 3.15625 -8.5625 3.304688 -8.613281 3.453125 -8.6875 C 3.484375 -8.707031 3.53125 -8.726562 3.59375 -8.75 C 3.882812 -8.863281 4.195312 -8.910156 4.53125 -8.890625 C 4.664062 -8.890625 4.800781 -8.890625 4.9375 -8.890625 C 5.46875 -8.816406 5.863281 -8.597656 6.125 -8.234375 C 6.394531 -7.867188 6.488281 -7.429688 6.40625 -6.921875 C 6.363281 -6.609375 6.269531 -6.3125 6.125 -6.03125 C 5.09375 -4.195312 3.785156 -3.242188 2.203125 -3.171875 Z M 4.234375 -7.953125 C 3.523438 -7.972656 2.894531 -7.765625 2.34375 -7.328125 C 1.800781 -6.898438 1.394531 -6.40625 1.125 -5.84375 C 0.863281 -5.289062 0.789062 -4.832031 0.90625 -4.46875 C 1.03125 -4.101562 1.40625 -4.003906 2.03125 -4.171875 C 2.738281 -4.378906 3.359375 -4.773438 3.890625 -5.359375 C 4.429688 -5.953125 4.757812 -6.515625 4.875 -7.046875 C 5 -7.578125 4.785156 -7.878906 4.234375 -7.953125 Z M 4.234375 -7.953125 "/></g></g></g><g fill="#5e6697" fill-opacity="1"><g transform="translate(112.716206, 150.589539)"><g><path d="M 10.578125 -6.671875 C 10.722656 -6.492188 10.546875 -6.164062 10.046875 -5.6875 C 9.546875 -5.21875 9.015625 -4.820312 8.453125 -4.5 C 7.890625 -4.175781 7.238281 -3.859375 6.5 -3.546875 C 6.007812 -3.328125 5.488281 -3.253906 4.9375 -3.328125 C 4.382812 -3.398438 4.109375 -3.734375 4.109375 -4.328125 C 4.109375 -4.921875 4.25 -5.515625 4.53125 -6.109375 C 4.800781 -6.710938 4.859375 -7.019531 4.703125 -7.03125 C 4.546875 -7.050781 4.222656 -6.90625 3.734375 -6.59375 C 2.460938 -5.757812 1.28125 -4.804688 0.1875 -3.734375 C -0.101562 -3.367188 -0.476562 -3.171875 -0.9375 -3.140625 C -1.164062 -3.140625 -1.34375 -3.210938 -1.46875 -3.359375 C -1.601562 -3.503906 -1.617188 -3.660156 -1.515625 -3.828125 C -0.734375 -5.285156 0.0546875 -6.722656 0.859375 -8.140625 C 1.035156 -8.429688 1.300781 -8.613281 1.65625 -8.6875 C 1.8125 -8.707031 1.953125 -8.65625 2.078125 -8.53125 C 2.203125 -8.414062 2.265625 -8.285156 2.265625 -8.140625 C 2.253906 -7.992188 2.195312 -7.820312 2.09375 -7.625 C 2.050781 -7.507812 2.007812 -7.398438 1.96875 -7.296875 C 1.925781 -7.191406 1.910156 -7.101562 1.921875 -7.03125 C 1.941406 -6.957031 2 -6.929688 2.09375 -6.953125 C 2.226562 -7.023438 2.363281 -7.101562 2.5 -7.1875 C 2.832031 -7.382812 3.15625 -7.570312 3.46875 -7.75 C 3.75 -7.90625 4.039062 -8.046875 4.34375 -8.171875 C 4.644531 -8.296875 4.960938 -8.378906 5.296875 -8.421875 C 5.828125 -8.460938 6.203125 -8.34375 6.421875 -8.0625 C 6.648438 -7.789062 6.675781 -7.410156 6.5 -6.921875 C 6.320312 -6.472656 6.132812 -6.03125 5.9375 -5.59375 C 5.695312 -5.1875 5.65625 -4.875 5.8125 -4.65625 C 5.976562 -4.445312 6.726562 -4.691406 8.0625 -5.390625 L 9.0625 -5.984375 C 10 -6.585938 10.503906 -6.816406 10.578125 -6.671875 Z M 10.578125 -6.671875 "/></g></g></g><g fill="#5e6697" fill-opacity="1"><g transform="translate(126.612108, 150.589539)"><g><path d="M 11.796875 -7.15625 C 11.867188 -7.175781 11.945312 -7.175781 12.03125 -7.15625 C 12.125 -7.144531 12.191406 -7.109375 12.234375 -7.046875 C 12.285156 -6.941406 12.28125 -6.835938 12.21875 -6.734375 C 12.164062 -6.640625 12.082031 -6.566406 11.96875 -6.515625 C 11.164062 -6.128906 10.359375 -5.722656 9.546875 -5.296875 C 8.597656 -4.804688 7.640625 -4.316406 6.671875 -3.828125 C 6.535156 -3.773438 6.398438 -3.710938 6.265625 -3.640625 C 6.046875 -3.515625 5.832031 -3.40625 5.625 -3.3125 C 5.132812 -3.070312 4.8125 -2.695312 4.65625 -2.1875 C 4.21875 -0.976562 3.765625 0.222656 3.296875 1.421875 C 2.691406 3.015625 1.9375 4.53125 1.03125 5.96875 C 0.519531 6.800781 -0.09375 7.535156 -0.8125 8.171875 C -1.675781 8.984375 -2.664062 9.5 -3.78125 9.71875 C -5.625 10.082031 -7.398438 9.957031 -9.109375 9.34375 C -9.816406 9.101562 -10.421875 8.707031 -10.921875 8.15625 C -11.609375 7.414062 -11.640625 6.617188 -11.015625 5.765625 C -10.742188 5.410156 -10.4375 5.078125 -10.09375 4.765625 C -9.34375 4.078125 -8.523438 3.460938 -7.640625 2.921875 C -4.484375 0.898438 -1.238281 -0.957031 2.09375 -2.65625 C 2.113281 -2.65625 2.125 -2.65625 2.125 -2.65625 C 2.46875 -2.832031 2.8125 -3.019531 3.15625 -3.21875 C 3.207031 -3.257812 3.28125 -3.351562 3.375 -3.5 C 3.476562 -3.65625 3.550781 -3.804688 3.59375 -3.953125 C 3.644531 -4.097656 3.632812 -4.203125 3.5625 -4.265625 C 3.488281 -4.335938 3.300781 -4.304688 3 -4.171875 C 2.882812 -4.117188 2.78125 -4.066406 2.6875 -4.015625 C 2.425781 -3.890625 2.164062 -3.78125 1.90625 -3.6875 C 0.382812 -3.320312 -0.375 -3.910156 -0.375 -5.453125 C -0.34375 -6.378906 -0.0664062 -7.210938 0.453125 -7.953125 C 0.984375 -8.703125 1.648438 -9.285156 2.453125 -9.703125 C 3.265625 -10.128906 4.144531 -10.289062 5.09375 -10.1875 C 5.1875 -10.1875 5.285156 -10.175781 5.390625 -10.15625 C 5.640625 -10.113281 5.894531 -10.09375 6.15625 -10.09375 C 6.425781 -10.09375 6.695312 -10.148438 6.96875 -10.265625 C 7.269531 -10.390625 7.492188 -10.359375 7.640625 -10.171875 C 7.785156 -9.992188 7.804688 -9.753906 7.703125 -9.453125 C 7.453125 -8.898438 7.203125 -8.34375 6.953125 -7.78125 C 6.765625 -7.425781 6.59375 -7.0625 6.4375 -6.6875 C 6.257812 -6.300781 6.085938 -5.898438 5.921875 -5.484375 C 5.679688 -4.953125 5.644531 -4.671875 5.8125 -4.640625 C 5.976562 -4.617188 6.265625 -4.710938 6.671875 -4.921875 C 6.734375 -4.941406 6.796875 -4.960938 6.859375 -4.984375 C 7.597656 -5.335938 8.347656 -5.6875 9.109375 -6.03125 C 9.640625 -6.28125 10.171875 -6.523438 10.703125 -6.765625 C 11.054688 -6.929688 11.421875 -7.0625 11.796875 -7.15625 Z M 2.296875 0.015625 C 2.578125 -0.765625 2.695312 -1.273438 2.65625 -1.515625 C 2.613281 -1.765625 2.441406 -1.832031 2.140625 -1.71875 C 1.835938 -1.601562 1.441406 -1.390625 0.953125 -1.078125 C 0.640625 -0.878906 0.296875 -0.6875 -0.078125 -0.5 C -2.328125 0.71875 -4.523438 2.023438 -6.671875 3.421875 C -7.609375 3.972656 -8.445312 4.640625 -9.1875 5.421875 C -9.96875 6.253906 -9.941406 7 -9.109375 7.65625 C -8.617188 8.050781 -8.070312 8.320312 -7.46875 8.46875 C -6.875 8.625 -6.210938 8.703125 -5.484375 8.703125 C -4.640625 8.765625 -3.859375 8.609375 -3.140625 8.234375 C -2.421875 7.867188 -1.753906 7.3125 -1.140625 6.5625 C -0.773438 6.070312 -0.421875 5.5625 -0.078125 5.03125 C 0.898438 3.425781 1.691406 1.753906 2.296875 0.015625 Z M 1.421875 -4.71875 C 1.648438 -4.613281 1.984375 -4.695312 2.421875 -4.96875 C 2.867188 -5.238281 3.320312 -5.601562 3.78125 -6.0625 C 4.238281 -6.53125 4.601562 -7.007812 4.875 -7.5 C 5.15625 -8 5.226562 -8.414062 5.09375 -8.75 C 5.050781 -8.84375 4.992188 -8.929688 4.921875 -9.015625 C 4.773438 -9.179688 4.613281 -9.257812 4.4375 -9.25 C 4.269531 -9.25 4.085938 -9.222656 3.890625 -9.171875 C 3.234375 -8.910156 2.65625 -8.460938 2.15625 -7.828125 C 1.664062 -7.203125 1.335938 -6.582031 1.171875 -5.96875 C 1.003906 -5.351562 1.085938 -4.9375 1.421875 -4.71875 Z M 1.421875 -4.71875 "/></g></g></g><g fill="#5e6697" fill-opacity="1"><g transform="translate(142.124389, 150.589539)"><g/></g></g><g fill="#5e6697" fill-opacity="1"><g transform="translate(156.327537, 150.589539)"><g><path d="M 12.296875 -32.375 C 12.472656 -32.375 12.628906 -32.3125 12.765625 -32.1875 C 12.898438 -32.070312 12.976562 -31.941406 13 -31.796875 C 13.019531 -31.503906 13.007812 -31.21875 12.96875 -30.9375 C 12.945312 -30.644531 12.90625 -30.367188 12.84375 -30.109375 C 12.832031 -29.992188 12.828125 -29.890625 12.828125 -29.796875 C 12.117188 -26.597656 11.234375 -23.46875 10.171875 -20.40625 C 10.078125 -20.0625 10.03125 -19.710938 10.03125 -19.359375 C 10.070312 -18.929688 9.992188 -18.53125 9.796875 -18.15625 C 9.347656 -17.488281 8.984375 -16.796875 8.703125 -16.078125 C 6.898438 -10.921875 4.960938 -5.820312 2.890625 -0.78125 C 1.140625 3.519531 -0.835938 7.726562 -3.046875 11.84375 C -3.648438 12.925781 -4.296875 14 -4.984375 15.0625 C -5.316406 15.507812 -5.691406 15.929688 -6.109375 16.328125 C -6.484375 16.640625 -6.914062 16.726562 -7.40625 16.59375 C -7.90625 16.46875 -8.148438 16.140625 -8.140625 15.609375 C -8.078125 14.992188 -7.9375 14.390625 -7.71875 13.796875 C -6.445312 10.273438 -5.035156 6.804688 -3.484375 3.390625 C -0.640625 -3.078125 2.65625 -9.289062 6.40625 -15.25 C 7.09375 -16.382812 7.625 -17.566406 8 -18.796875 C 8.664062 -20.796875 9.289062 -22.804688 9.875 -24.828125 C 10.46875 -26.847656 10.976562 -28.882812 11.40625 -30.9375 C 11.46875 -31.269531 11.550781 -31.601562 11.65625 -31.9375 C 11.769531 -32.226562 11.984375 -32.375 12.296875 -32.375 Z M -5.34375 12.84375 C -3.519531 9.519531 -1.859375 6.128906 -0.359375 2.671875 C 1.140625 -0.785156 2.515625 -4.304688 3.765625 -7.890625 C 3.742188 -7.878906 3.726562 -7.847656 3.71875 -7.796875 C 3.65625 -7.765625 3.597656 -7.71875 3.546875 -7.65625 C 3.398438 -7.40625 3.257812 -7.160156 3.125 -6.921875 C 1.476562 -3.867188 -0.0390625 -0.753906 -1.4375 2.421875 C -2.84375 5.597656 -4.1875 8.789062 -5.46875 12 C -5.476562 12.039062 -5.484375 12.070312 -5.484375 12.09375 C -5.546875 12.1875 -5.578125 12.296875 -5.578125 12.421875 C -5.578125 12.554688 -5.5 12.695312 -5.34375 12.84375 Z M 70.921875 -33.109375 C 70.921875 -33.035156 70.882812 -32.957031 70.8125 -32.875 C 70.738281 -32.789062 70.648438 -32.726562 70.546875 -32.6875 C 70.453125 -32.65625 70.363281 -32.660156 70.28125 -32.703125 C 69.769531 -33.015625 69.226562 -33.222656 68.65625 -33.328125 C 68.09375 -33.429688 67.523438 -33.515625 66.953125 -33.578125 C 66.523438 -33.597656 66.109375 -33.648438 65.703125 -33.734375 C 64.171875 -33.960938 62.640625 -34.15625 61.109375 -34.3125 C 56.078125 -34.726562 51.03125 -34.953125 45.96875 -34.984375 C 41.09375 -35.046875 36.21875 -34.941406 31.34375 -34.671875 C 25.832031 -34.390625 20.335938 -33.976562 14.859375 -33.4375 C 9.816406 -32.976562 4.785156 -32.429688 -0.234375 -31.796875 C -0.535156 -31.753906 -0.859375 -31.710938 -1.203125 -31.671875 C -3.117188 -31.410156 -5.03125 -31.132812 -6.9375 -30.84375 C -8.851562 -30.550781 -10.765625 -30.191406 -12.671875 -29.765625 C -12.816406 -29.722656 -12.96875 -29.679688 -13.125 -29.640625 C -13.863281 -29.460938 -14.609375 -29.265625 -15.359375 -29.046875 C -16.109375 -28.835938 -16.828125 -28.554688 -17.515625 -28.203125 C -17.609375 -28.148438 -17.710938 -28.109375 -17.828125 -28.078125 C -17.984375 -28.054688 -18.128906 -28.0625 -18.265625 -28.09375 C -18.398438 -28.125 -18.507812 -28.207031 -18.59375 -28.34375 C -18.675781 -28.488281 -18.6875 -28.625 -18.625 -28.75 C -18.570312 -28.875 -18.472656 -28.976562 -18.328125 -29.0625 C -17.878906 -29.289062 -17.410156 -29.492188 -16.921875 -29.671875 C -15.703125 -30.078125 -14.472656 -30.421875 -13.234375 -30.703125 C -11.992188 -30.992188 -10.742188 -31.242188 -9.484375 -31.453125 C -5.859375 -32.066406 -2.234375 -32.601562 1.390625 -33.0625 C 5.015625 -33.53125 8.65625 -33.941406 12.3125 -34.296875 C 17.457031 -34.816406 22.601562 -35.234375 27.75 -35.546875 C 32.238281 -35.835938 36.726562 -36.007812 41.21875 -36.0625 C 44.507812 -36.09375 47.800781 -36.054688 51.09375 -35.953125 C 54.382812 -35.859375 57.671875 -35.664062 60.953125 -35.375 C 63.953125 -35.0625 66.929688 -34.601562 69.890625 -34 C 70.171875 -33.9375 70.425781 -33.835938 70.65625 -33.703125 C 70.851562 -33.554688 70.941406 -33.359375 70.921875 -33.109375 Z M 70.921875 -33.109375 "/></g></g></g><g fill="#5e6697" fill-opacity="1"><g transform="translate(170.223444, 150.589539)"><g><path d="M 10.84375 -6.21875 C 10.6875 -6.082031 10.519531 -5.957031 10.34375 -5.84375 C 9.769531 -5.476562 9.253906 -5.191406 8.796875 -4.984375 C 8.335938 -4.785156 7.796875 -4.582031 7.171875 -4.375 C 6.242188 -4.09375 5.648438 -4.148438 5.390625 -4.546875 C 5.128906 -4.953125 5.085938 -5.507812 5.265625 -6.21875 C 5.515625 -7.238281 5.65625 -7.984375 5.6875 -8.453125 C 5.726562 -8.929688 5.570312 -9.09375 5.21875 -8.9375 C 4.875 -8.789062 4.238281 -8.304688 3.3125 -7.484375 C 2.019531 -6.367188 0.914062 -5.09375 0 -3.65625 C -0.113281 -3.457031 -0.253906 -3.296875 -0.421875 -3.171875 C -0.597656 -3.054688 -0.8125 -3 -1.0625 -3 C -1.300781 -3 -1.472656 -3.054688 -1.578125 -3.171875 C -1.679688 -3.296875 -1.6875 -3.46875 -1.59375 -3.6875 C -1.0625 -4.84375 -0.519531 -5.992188 0.03125 -7.140625 C 0.96875 -9.109375 1.894531 -11.070312 2.8125 -13.03125 C 3.5 -14.507812 4.175781 -15.984375 4.84375 -17.453125 C 5.257812 -18.316406 5.660156 -19.175781 6.046875 -20.03125 C 6.085938 -20.101562 6.128906 -20.179688 6.171875 -20.265625 C 6.203125 -20.359375 6.242188 -20.453125 6.296875 -20.546875 C 6.347656 -20.648438 6.40625 -20.757812 6.46875 -20.875 C 6.519531 -20.976562 6.617188 -21.0625 6.765625 -21.125 C 6.910156 -21.1875 7.054688 -21.222656 7.203125 -21.234375 C 7.347656 -21.253906 7.460938 -21.25 7.546875 -21.21875 C 7.660156 -21.132812 7.722656 -21.046875 7.734375 -20.953125 C 7.753906 -20.867188 7.738281 -20.78125 7.6875 -20.6875 C 7.675781 -20.664062 7.671875 -20.632812 7.671875 -20.59375 C 7.492188 -20.0625 7.304688 -19.550781 7.109375 -19.0625 C 5.972656 -16.332031 4.738281 -13.648438 3.40625 -11.015625 C 3.3125 -10.828125 3.195312 -10.609375 3.0625 -10.359375 C 2.863281 -10.003906 2.675781 -9.65625 2.5 -9.3125 C 2.332031 -8.96875 2.28125 -8.738281 2.34375 -8.625 C 2.40625 -8.507812 2.671875 -8.597656 3.140625 -8.890625 C 3.285156 -8.992188 3.414062 -9.09375 3.53125 -9.1875 C 3.90625 -9.4375 4.273438 -9.675781 4.640625 -9.90625 C 4.953125 -10.113281 5.304688 -10.226562 5.703125 -10.25 C 6.640625 -10.3125 7.164062 -9.890625 7.28125 -8.984375 C 7.320312 -8.609375 7.304688 -8.242188 7.234375 -7.890625 C 7.171875 -7.535156 7.085938 -7.1875 6.984375 -6.84375 C 6.960938 -6.738281 6.945312 -6.640625 6.9375 -6.546875 C 6.769531 -5.941406 6.804688 -5.59375 7.046875 -5.5 C 7.296875 -5.414062 7.640625 -5.46875 8.078125 -5.65625 C 8.523438 -5.84375 8.976562 -6.066406 9.4375 -6.328125 C 9.75 -6.492188 10.019531 -6.632812 10.25 -6.75 C 10.488281 -6.863281 10.664062 -6.910156 10.78125 -6.890625 C 10.988281 -6.859375 11.082031 -6.769531 11.0625 -6.625 C 11.050781 -6.488281 10.976562 -6.351562 10.84375 -6.21875 Z M 10.84375 -6.21875 "/></g></g></g><g fill="#5e6697" fill-opacity="1"><g transform="translate(184.520107, 150.589539)"><g><path d="M 5.3125 -5.625 C 4.832031 -5.0625 4.265625 -4.539062 3.609375 -4.0625 C 2.960938 -3.59375 2.226562 -3.273438 1.40625 -3.109375 C 0.59375 -2.953125 -0.0351562 -3.015625 -0.484375 -3.296875 C -0.941406 -3.585938 -1.035156 -4.222656 -0.765625 -5.203125 C -0.410156 -6.210938 0.078125 -7.175781 0.703125 -8.09375 C 0.847656 -8.289062 1.054688 -8.429688 1.328125 -8.515625 C 1.515625 -8.554688 1.679688 -8.519531 1.828125 -8.40625 C 1.984375 -8.300781 2.039062 -8.160156 2 -7.984375 C 1.863281 -7.660156 1.71875 -7.335938 1.5625 -7.015625 C 1.40625 -6.703125 1.300781 -6.5 1.25 -6.40625 C 0.9375 -5.832031 0.71875 -5.234375 0.59375 -4.609375 C 0.59375 -4.253906 1.066406 -4.234375 2.015625 -4.546875 C 2.972656 -4.859375 3.898438 -5.425781 4.796875 -6.25 C 5.691406 -7.082031 6.117188 -7.328125 6.078125 -6.984375 C 6.046875 -6.648438 5.789062 -6.195312 5.3125 -5.625 Z M 2.984375 -10.09375 C 2.929688 -10.0625 2.835938 -10.019531 2.703125 -9.96875 C 2.566406 -9.925781 2.421875 -9.890625 2.265625 -9.859375 C 2.109375 -9.835938 1.984375 -9.863281 1.890625 -9.9375 C 1.804688 -10.007812 1.804688 -10.148438 1.890625 -10.359375 C 2.023438 -10.734375 2.171875 -11.0625 2.328125 -11.34375 C 2.484375 -11.625 2.6875 -11.9375 2.9375 -12.28125 C 3.09375 -12.425781 3.265625 -12.503906 3.453125 -12.515625 C 3.640625 -12.535156 3.796875 -12.488281 3.921875 -12.375 C 4.046875 -12.257812 4.082031 -12.109375 4.03125 -11.921875 C 3.832031 -11.210938 3.484375 -10.601562 2.984375 -10.09375 Z M 2.984375 -10.09375 "/></g></g></g><g fill="#5e6697" fill-opacity="1"><g transform="translate(193.83404, 150.589539)"><g><path d="M 10.578125 -6.671875 C 10.722656 -6.492188 10.546875 -6.164062 10.046875 -5.6875 C 9.546875 -5.21875 9.015625 -4.820312 8.453125 -4.5 C 7.890625 -4.175781 7.238281 -3.859375 6.5 -3.546875 C 6.007812 -3.328125 5.488281 -3.253906 4.9375 -3.328125 C 4.382812 -3.398438 4.109375 -3.734375 4.109375 -4.328125 C 4.109375 -4.921875 4.25 -5.515625 4.53125 -6.109375 C 4.800781 -6.710938 4.859375 -7.019531 4.703125 -7.03125 C 4.546875 -7.050781 4.222656 -6.90625 3.734375 -6.59375 C 2.460938 -5.757812 1.28125 -4.804688 0.1875 -3.734375 C -0.101562 -3.367188 -0.476562 -3.171875 -0.9375 -3.140625 C -1.164062 -3.140625 -1.34375 -3.210938 -1.46875 -3.359375 C -1.601562 -3.503906 -1.617188 -3.660156 -1.515625 -3.828125 C -0.734375 -5.285156 0.0546875 -6.722656 0.859375 -8.140625 C 1.035156 -8.429688 1.300781 -8.613281 1.65625 -8.6875 C 1.8125 -8.707031 1.953125 -8.65625 2.078125 -8.53125 C 2.203125 -8.414062 2.265625 -8.285156 2.265625 -8.140625 C 2.253906 -7.992188 2.195312 -7.820312 2.09375 -7.625 C 2.050781 -7.507812 2.007812 -7.398438 1.96875 -7.296875 C 1.925781 -7.191406 1.910156 -7.101562 1.921875 -7.03125 C 1.941406 -6.957031 2 -6.929688 2.09375 -6.953125 C 2.226562 -7.023438 2.363281 -7.101562 2.5 -7.1875 C 2.832031 -7.382812 3.15625 -7.570312 3.46875 -7.75 C 3.75 -7.90625 4.039062 -8.046875 4.34375 -8.171875 C 4.644531 -8.296875 4.960938 -8.378906 5.296875 -8.421875 C 5.828125 -8.460938 6.203125 -8.34375 6.421875 -8.0625 C 6.648438 -7.789062 6.675781 -7.410156 6.5 -6.921875 C 6.320312 -6.472656 6.132812 -6.03125 5.9375 -5.59375 C 5.695312 -5.1875 5.65625 -4.875 5.8125 -4.65625 C 5.976562 -4.445312 6.726562 -4.691406 8.0625 -5.390625 L 9.0625 -5.984375 C 10 -6.585938 10.503906 -6.816406 10.578125 -6.671875 Z M 10.578125 -6.671875 "/></g></g></g><g fill="#5e6697" fill-opacity="1"><g transform="translate(207.729947, 150.589539)"><g><path d="M 10.84375 -6.21875 C 10.6875 -6.082031 10.519531 -5.957031 10.34375 -5.84375 C 9.769531 -5.476562 9.253906 -5.191406 8.796875 -4.984375 C 8.335938 -4.785156 7.796875 -4.582031 7.171875 -4.375 C 6.242188 -4.09375 5.648438 -4.148438 5.390625 -4.546875 C 5.128906 -4.953125 5.085938 -5.507812 5.265625 -6.21875 C 5.515625 -7.238281 5.65625 -7.984375 5.6875 -8.453125 C 5.726562 -8.929688 5.570312 -9.09375 5.21875 -8.9375 C 4.875 -8.789062 4.238281 -8.304688 3.3125 -7.484375 C 2.019531 -6.367188 0.914062 -5.09375 0 -3.65625 C -0.113281 -3.457031 -0.253906 -3.296875 -0.421875 -3.171875 C -0.597656 -3.054688 -0.8125 -3 -1.0625 -3 C -1.300781 -3 -1.472656 -3.054688 -1.578125 -3.171875 C -1.679688 -3.296875 -1.6875 -3.46875 -1.59375 -3.6875 C -1.0625 -4.84375 -0.519531 -5.992188 0.03125 -7.140625 C 0.96875 -9.109375 1.894531 -11.070312 2.8125 -13.03125 C 3.5 -14.507812 4.175781 -15.984375 4.84375 -17.453125 C 5.257812 -18.316406 5.660156 -19.175781 6.046875 -20.03125 C 6.085938 -20.101562 6.128906 -20.179688 6.171875 -20.265625 C 6.203125 -20.359375 6.242188 -20.453125 6.296875 -20.546875 C 6.347656 -20.648438 6.40625 -20.757812 6.46875 -20.875 C 6.519531 -20.976562 6.617188 -21.0625 6.765625 -21.125 C 6.910156 -21.1875 7.054688 -21.222656 7.203125 -21.234375 C 7.347656 -21.253906 7.460938 -21.25 7.546875 -21.21875 C 7.660156 -21.132812 7.722656 -21.046875 7.734375 -20.953125 C 7.753906 -20.867188 7.738281 -20.78125 7.6875 -20.6875 C 7.675781 -20.664062 7.671875 -20.632812 7.671875 -20.59375 C 7.492188 -20.0625 7.304688 -19.550781 7.109375 -19.0625 C 5.972656 -16.332031 4.738281 -13.648438 3.40625 -11.015625 C 3.3125 -10.828125 3.195312 -10.609375 3.0625 -10.359375 C 2.863281 -10.003906 2.675781 -9.65625 2.5 -9.3125 C 2.332031 -8.96875 2.28125 -8.738281 2.34375 -8.625 C 2.40625 -8.507812 2.671875 -8.597656 3.140625 -8.890625 C 3.285156 -8.992188 3.414062 -9.09375 3.53125 -9.1875 C 3.90625 -9.4375 4.273438 -9.675781 4.640625 -9.90625 C 4.953125 -10.113281 5.304688 -10.226562 5.703125 -10.25 C 6.640625 -10.3125 7.164062 -9.890625 7.28125 -8.984375 C 7.320312 -8.609375 7.304688 -8.242188 7.234375 -7.890625 C 7.171875 -7.535156 7.085938 -7.1875 6.984375 -6.84375 C 6.960938 -6.738281 6.945312 -6.640625 6.9375 -6.546875 C 6.769531 -5.941406 6.804688 -5.59375 7.046875 -5.5 C 7.296875 -5.414062 7.640625 -5.46875 8.078125 -5.65625 C 8.523438 -5.84375 8.976562 -6.066406 9.4375 -6.328125 C 9.75 -6.492188 10.019531 -6.632812 10.25 -6.75 C 10.488281 -6.863281 10.664062 -6.910156 10.78125 -6.890625 C 10.988281 -6.859375 11.082031 -6.769531 11.0625 -6.625 C 11.050781 -6.488281 10.976562 -6.351562 10.84375 -6.21875 Z M 10.84375 -6.21875 "/></g></g></g><g fill="#5e6697" fill-opacity="1"><g transform="translate(222.02661, 150.589539)"><g/></g></g><g fill="#5e6697" fill-opacity="1"><g transform="translate(236.229757, 150.589539)"><g><path d="M 6.5 -5.8125 L 5.40625 -5.84375 C 4.3125 -5.875 3.113281 -5.960938 1.8125 -6.109375 C 1.800781 -6.109375 1.785156 -6.125 1.765625 -6.15625 C 1.722656 -6.15625 1.691406 -6.171875 1.671875 -6.203125 C 1.648438 -6.234375 1.648438 -6.300781 1.671875 -6.40625 C 1.765625 -6.8125 1.910156 -7.023438 2.109375 -7.046875 C 3.148438 -7.179688 4.179688 -7.257812 5.203125 -7.28125 L 5.828125 -7.3125 L 9.9375 -7.3125 C 10.164062 -7.3125 10.390625 -7.289062 10.609375 -7.25 C 10.765625 -7.207031 10.785156 -6.984375 10.671875 -6.578125 C 10.546875 -6.160156 10.398438 -5.929688 10.234375 -5.890625 C 10.148438 -5.867188 10.070312 -5.859375 10 -5.859375 L 9.34375 -5.859375 C 8.4375 -5.828125 7.488281 -5.8125 6.5 -5.8125 Z M 6.5 -5.8125 "/></g></g></g><g mask="url(#0d8e707a2a)"><g transform="matrix(1, 0, 0, 1, 73, 0)"><g clip-path="url(#dd28d90329)"><g clip-path="url(#441fb2eed8)"><path fill="#50577a" d="M 16.003906 65.585938 C 16.019531 66.308594 15.652344 67.484375 15.84375 68.488281 C 16.796875 73.457031 20.960938 78.3125 19.167969 83.546875 C 18.136719 86.550781 15.417969 88.183594 13.496094 90.53125 C 11.902344 92.480469 9.90625 100.144531 6.027344 96.039062 C 3.425781 93.285156 6.144531 82.828125 7.21875 79.21875 Z M 115.402344 104.480469 C 115.425781 104.480469 115.320312 104.289062 115.308594 104.257812 C 114.84375 103.003906 114.578125 101.644531 114.316406 100.339844 C 113.65625 97.066406 113.203125 93.621094 113.277344 90.277344 C 113.378906 85.621094 115.558594 87.222656 118.65625 85.671875 C 121.617188 84.1875 122.886719 74.898438 126.082031 76.539062 C 127.71875 77.378906 128.363281 79.710938 128.753906 81.34375 C 131.335938 92.054688 121.148438 102.015625 113.132812 107.675781 Z M 30.582031 115.511719 C 30.035156 115.519531 31.433594 114.785156 31.679688 114.296875 C 32.207031 113.253906 32.582031 112.144531 32.898438 111.019531 C 33.757812 107.964844 34.542969 101.058594 39.132812 101.449219 C 40.027344 101.523438 56.257812 117.605469 43.347656 116.292969 Z M 8.980469 112.238281 C 9.234375 112.339844 8.941406 112.78125 8.976562 113.050781 C 9.273438 115.257812 10.023438 117.402344 10.980469 119.402344 C 12.527344 122.625 16.1875 125.910156 16.640625 129.519531 C 17.582031 136.945312 8.882812 130.039062 7.230469 127.785156 C 5.042969 124.808594 6.863281 119.117188 7.46875 115.867188 L 8.980469 112.238281 " fill-opacity="1" fill-rule="evenodd"/></g><path fill="#6b728e" d="M 100.378906 46.78125 C 99.984375 48.6875 101.167969 50.609375 99.378906 51.617188 C 94.886719 54.148438 87.65625 52.714844 85.726562 47.691406 C 85.492188 47.078125 85.398438 46.433594 85.414062 45.777344 C 85.339844 45.738281 85.269531 45.695312 85.207031 45.636719 C 79.53125 40.398438 73.179688 43.773438 72.035156 44.453125 C 71.957031 45.597656 71.628906 46.757812 70.984375 47.898438 C 70.160156 49.359375 68.953125 50.894531 67.359375 51.578125 C 57.734375 55.714844 46.105469 45.511719 55.574219 36.921875 C 57.238281 35.414062 59.191406 34.464844 61.414062 34.125 C 62.242188 33.996094 63.15625 34.15625 64.023438 34.257812 C 67.335938 34.632812 71.242188 38.253906 71.945312 42.550781 C 74.308594 41.367188 80.207031 39.242188 85.769531 43.851562 C 86.617188 41.292969 88.871094 38.871094 91.265625 37.878906 C 96.054688 35.894531 100.183594 38.722656 101.980469 42.316406 C 102.023438 42.398438 101.707031 42.703125 101.671875 42.746094 C 100.792969 43.84375 100.65625 45.421875 100.378906 46.78125 " fill-opacity="1" fill-rule="evenodd"/><g clip-path="url(#1933e66182)"><path stroke-linecap="round" transform="matrix(0.0201891, 0, 0, -0.0201891, 0.294555, 132.870055)" fill="none" stroke-linejoin="round" d="M 4963.926041 2990.424637 C 4967.795705 2991.585536 5032.612572 2946.697437 5043.060664 2943.795189 C 5174.62923 2905.679002 5330.383194 3031.830039 5397.134893 3139.600173 M 5104.975283 4524.359329 C 5127.999782 4496.691234 5385.138935 4040.070917 5492.32862 3925.722354 M 4991.981103 4241.873879 C 5031.451673 4073.350025 5176.564062 3843.878967 5285.688578 3745.976475 M 4943.029857 2164.251436 C 4953.477949 2117.041539 4968.182671 2070.799058 4984.435259 2025.523992 C 5034.160437 1885.829133 5097.816405 1752.132252 5168.050802 1621.724585 C 5397.908826 1194.320229 5574.558974 814.512736 5638.601908 330.224324 M 5544.56908 2924.059905 C 5480.139179 3083.103083 5361.533987 3204.610523 5252.602953 3333.663808 C 5036.095269 3590.029028 4969.730537 3898.247742 4984.435259 4237.423766 C 4995.076834 4483.727861 5262.857562 4714.359817 5263.244529 4715.907683 L 5263.438012 4713.972851 C 5258.020483 4712.231502 5533.927505 4358.157273 5647.695618 4252.708937 C 5893.612746 4024.398779 6353.909244 3672.065899 6483.736461 3367.329882 C 6670.060768 2930.057883 6431.496001 2168.314583 6148.623584 1803.792262 C 5965.201525 1567.742776 5707.481922 1366.713747 5453.245017 1211.346749 M 4635.585076 5849.332182 C 4644.872269 5818.955322 4656.094293 5789.158911 4667.896768 5759.749467 C 4697.693178 5684.871474 4730.198353 5610.767414 4762.703529 5537.050321 C 4829.261744 5385.74647 4898.528725 5235.410035 4943.997273 5075.97989 C 4995.076834 4897.588394 5037.062685 4694.818016 5080.983368 4514.491687 M 4079.320918 6316.787557 C 4100.991035 6330.137897 4124.209017 6340.585989 4148.200932 6349.292732 C 4217.274429 6374.252063 4290.604557 6390.698134 4362.773785 6404.048474 C 4629.78058 6453.580169 4898.528725 6448.936573 5167.470352 6424.944658 C 5234.8025 6418.946679 5303.102065 6413.142183 5370.627696 6413.142183 C 5372.756011 6413.142183 5389.395565 6415.657465 5390.556465 6413.52915 C 5391.910847 6410.626902 5385.912868 6403.274541 5384.751969 6401.339709 C 5334.059374 6322.785536 5293.814872 6236.685519 5254.924752 6151.7464 C 5195.525414 6021.7257 4971.084919 5373.943996 4865.830066 5301.387801 M 2420.589572 6275.962605 C 2462.38194 6298.793621 2636.710289 6363.997454 2680.824456 6381.797907 C 2812.199538 6435.199267 2953.442264 6470.219723 3094.491506 6485.117928 C 3347.760995 6511.625125 3601.417451 6476.024219 3843.464916 6400.75926 C 3976.387864 6359.353858 4104.280249 6287.958563 4239.911962 6260.290467 M 1798.154165 3142.695904 C 1798.928098 3142.889387 1806.473942 3134.182644 1807.054391 3133.602194 C 2490.630485 2468.79397 3944.076172 2602.877817 4141.235538 2624.741417 C 4441.134475 2658.020525 5093.753258 2872.980344 5141.737088 3478.776197 M 1027.510638 3826.46548 C 1018.223445 3822.595817 677.693039 3165.913886 648.090112 3116.769157 C 262.86509 2478.468129 -408.715046 1616.694022 487.305585 1076.102003 M 1565.780859 5450.950303 C 1547.786923 5443.597942 1355.851603 5017.934935 1340.372949 4984.268861 C 1191.777862 4663.47374 1089.231774 4345.1939 1052.276486 3993.247986 C 1030.606369 3789.123226 1035.249965 3571.067676 985.71827 3371.199546 M 1427.633865 5181.04126 C 1434.59926 5178.525979 1399.38532 5250.30824 1389.130711 5289.004877 C 1366.106212 5375.491861 1347.338343 5463.52671 1330.11834 5551.368077 C 1310.383055 5651.398883 1170.301229 6465.76961 1207.256517 6531.940859 C 1213.641462 6543.356367 1510.638152 6535.61704 1539.08018 6535.61704 C 1885.802048 6535.61704 2335.650453 6527.684229 2661.476137 6387.989369 " stroke="#5e6697" stroke-width="85" stroke-opacity="1" stroke-miterlimit="10"/></g><path stroke-linecap="round" transform="matrix(0.0201891, 0, 0, -0.0201891, 0.294555, 132.870055)" fill="none" stroke-linejoin="round" d="M 3061.986621 1227.986419 C 3055.795158 1234.177882 3074.369546 1215.990461 3080.947975 1210.572931 C 3092.556967 1201.285737 3103.972476 1191.80506 3115.194502 1181.937417 C 3145.764848 1155.043252 3174.400362 1125.633805 3201.681494 1095.450425 C 3287.20107 1000.643655 3365.755251 887.455981 3414.513018 768.850777 M 2798.075531 1157.9455 C 2797.495082 1154.462802 2835.224306 1127.375154 2838.320038 1124.666389 C 2971.436482 1006.254668 3056.762574 866.946762 3158.921706 725.317057 M 437.580448 1097.57874 C 449.382923 1128.536053 410.492799 1037.211981 401.012122 1005.480735 C 379.72897 933.89195 361.928515 861.142266 347.997725 787.812131 C 310.84895 590.459264 252.997472 324.613342 315.299063 125.132159 M 4857.897716 3517.473167 C 4873.763339 3495.996532 4949.028305 3487.289787 4973.213706 3477.80911 C 5055.444067 3445.303932 5129.161168 3397.900547 5205.200067 3353.592894 M 4799.852755 3642.850283 C 4796.370058 3633.563089 4819.588042 3645.365565 4829.455685 3646.332981 C 4851.512771 3648.848262 4873.763339 3651.557027 4895.820424 3653.685342 C 4957.1546 3659.876805 5002.623153 3640.141518 5063.763845 3632.208707 M 4698.08059 3743.074583 C 4690.341262 3739.591885 4711.237448 3753.909642 4718.396327 3758.553239 C 4741.807794 3773.644929 4765.993195 3787.382236 4790.178595 3800.92606 C 4837.58198 3827.820226 4927.55167 3899.215528 4984.242248 3901.924293 M 3165.887101 3579.968242 C 3166.467551 3583.45094 3142.088667 3570.100599 3115.194502 3557.911157 C 3080.947975 3542.625984 3047.088414 3526.566878 3013.228854 3510.314289 C 2914.745903 3462.910904 2818.391268 3411.444372 2723.391015 3357.462558 C 2431.618344 3191.647452 2126.108365 3002.420879 1901.861332 2747.6035 M 2837.739588 3634.917472 C 2839.287454 3629.306459 2825.937113 3635.110955 2820.132617 3633.756573 C 2775.05103 3624.469379 2730.549893 3610.538588 2686.629206 3596.801281 C 2582.341759 3564.296102 2479.602178 3526.953844 2378.21698 3486.709338 C 2074.44835 3366.169302 1768.551405 3228.989711 1494.579189 3049.437298 M 3068.56505 3790.671451 C 3068.371567 3785.640887 3060.632239 3797.24988 3055.988642 3798.797745 C 3044.379649 3802.667409 3031.609758 3803.828308 3019.613799 3805.376174 C 2978.59536 3810.793704 2937.189955 3814.082918 2895.978032 3816.791683 C 2774.083614 3824.337528 2651.802229 3821.628763 2529.907811 3816.404717 C 2149.32635 3800.345611 1719.793638 3777.514593 1368.041174 3611.119038 M 422.295275 1118.08796 C 427.325838 1124.859872 434.871683 1106.672451 441.837078 1101.835371 C 462.346298 1087.517614 484.016417 1074.167273 505.880019 1061.590864 C 560.442282 1030.246585 618.29376 1003.93287 676.532204 980.327919 C 858.019449 907.191268 1049.761304 869.075077 1244.59889 858.046534 C 1509.864362 842.761361 1779.966914 827.089222 2045.619353 823.219558 C 2434.133625 817.415062 2700.75348 843.148328 3074.756512 707.710085 L 3078.045727 706.549186 C 3393.616832 633.799501 3571.427896 795.938426 3380.266491 1114.411779 C 3306.936357 1236.693164 3195.490031 1335.950047 3086.558988 1425.339287 C 2624.134131 1804.953332 2060.904526 2004.821482 1459.752212 1953.741916 C 1282.521598 1938.650226 1107.999748 1904.210216 935.219247 1862.417844 C 922.836322 1859.322113 772.112907 1831.460531 769.210659 1817.916707 M 4002.121507 3898.441595 C 4013.343533 3860.325404 4051.266241 3766.679533 4073.710292 3733.400422 C 4211.470333 3528.50171 4369.352627 3660.844221 4391.603196 3671.292314 M 4001.154091 3909.470138 C 4000.186675 3909.663621 3998.05836 3895.152381 3997.864877 3893.991481 C 3994.575662 3877.351926 3990.319032 3860.905854 3985.868918 3844.653264 C 3973.872959 3802.08696 3957.039921 3760.488071 3933.43497 3722.952329 C 3863.587533 3612.279937 3693.322314 3577.45296 3581.102056 3645.752531 " stroke="#5e6697" stroke-width="85" stroke-opacity="1" stroke-miterlimit="10"/><path fill="#50577a" d="M 104.554688 7.066406 C 104.507812 6.003906 92.949219 5.132812 91.019531 7.644531 C 90.496094 8.324219 96.492188 14.75 98.558594 17.433594 C 99.933594 19.222656 104.648438 9.273438 104.554688 7.066406 Z M 31.613281 7.15625 C 30.382812 8.296875 30.925781 20.792969 33.542969 20.738281 C 36.160156 20.6875 47.628906 9.09375 47.304688 6.832031 C 46.984375 4.570312 33.664062 5.257812 31.613281 7.15625 Z M 83.660156 51.703125 C 83.429688 51.96875 83.167969 52.210938 82.902344 52.441406 C 82.457031 52.828125 81.960938 53.210938 81.425781 53.460938 L 81.199219 53.523438 C 81.207031 53.691406 80.886719 53.390625 80.742188 53.308594 C 80.457031 53.148438 80.1875 52.96875 79.933594 52.765625 C 79.496094 52.425781 77.304688 50.457031 78.058594 49.828125 C 78.71875 49.285156 80.269531 49.589844 81.039062 49.628906 C 82.644531 49.703125 85.761719 49.273438 83.660156 51.703125 " fill-opacity="1" fill-rule="evenodd"/></g></g></g></svg>