<svg xmlns="http://www.w3.org/2000/svg" xmlns:xlink="http://www.w3.org/1999/xlink" zoomAndPan="magnify" viewBox="0 0 279.75 191.999996" preserveAspectRatio="xMidYMid meet" version="1.0"><defs><g/><clipPath id="c89ae6f7b4"><path d="M 70 0.0859375 L 213.039062 0.0859375 L 213.039062 141.710938 L 70 141.710938 Z M 70 0.0859375 " clip-rule="nonzero"/></clipPath><clipPath id="dcc161b3e5"><path d="M 63.171875 87 L 154 87 L 154 141.710938 L 63.171875 141.710938 Z M 63.171875 87 " clip-rule="nonzero"/></clipPath><clipPath id="a5fb3a015e"><path d="M 63.171875 47 L 100 47 L 100 135 L 63.171875 135 Z M 63.171875 47 " clip-rule="nonzero"/></clipPath><clipPath id="9ca5a07516"><path d="M 110 108 L 150 108 L 150 141.710938 L 110 141.710938 Z M 110 108 " clip-rule="nonzero"/></clipPath><clipPath id="c4b575e8e8"><path d="M 63.171875 95 L 96 95 L 96 138 L 63.171875 138 Z M 63.171875 95 " clip-rule="nonzero"/></clipPath><clipPath id="49ed76afa0"><path d="M 63.171875 58 L 98 58 L 98 119 L 63.171875 119 Z M 63.171875 58 " clip-rule="nonzero"/></clipPath><clipPath id="27e87dca8b"><path d="M 82 0.0859375 L 128 0.0859375 L 128 37 L 82 37 Z M 82 0.0859375 " clip-rule="nonzero"/></clipPath><clipPath id="dff5eaf9d9"><path d="M 145 0.0859375 L 190 0.0859375 L 190 33 L 145 33 Z M 145 0.0859375 " clip-rule="nonzero"/></clipPath><clipPath id="9d43cdc6b1"><path d="M 170 68 L 213.039062 68 L 213.039062 126 L 170 126 Z M 170 68 " clip-rule="nonzero"/></clipPath><clipPath id="5d9cb49559"><path d="M 154 107 L 201 107 L 201 141.710938 L 154 141.710938 Z M 154 107 " clip-rule="nonzero"/></clipPath></defs><g clip-path="url(#c89ae6f7b4)"><path stroke-linecap="butt" transform="matrix(0.998323, 0, 0, 0.99791, -70.434686, -118.755428)" fill="none" stroke-linejoin="miter" d="M 155.488437 188.359983 C 155.488437 188.359983 154.408501 172.209045 165.180474 147.458104 C 165.180474 147.458104 160.328587 139.390463 160.328587 120.01012 C 160.328587 120.01012 184.008928 117.861098 191.548917 123.239525 C 194.115722 122.147399 196.772522 121.344941 199.515404 120.832151 C 202.258285 120.31936 205.024644 120.111895 207.814479 120.201927 C 210.604314 120.295874 213.351109 120.691231 216.050949 121.384085 C 218.754703 122.080854 221.35281 123.059461 223.841359 124.319908 C 223.841359 124.319908 236.749727 118.941481 250.749771 123.239525 C 250.749771 123.239525 246.441764 138.310081 239.981711 145.841444 C 239.981711 145.841444 249.669834 169.519831 245.361828 188.900174 C 244.962721 190.591208 244.305368 192.176552 243.385857 193.652292 C 242.462434 195.124118 241.327718 196.411965 239.981711 197.51192 C 239.981711 197.51192 248.589898 199.660942 251.821881 194.278601 C 251.821881 194.278601 253.970015 192.129579 252.901817 184.590387 C 251.849271 177.258659 254.901265 179.098441 257.029835 186.140501 C 257.088527 186.340137 257.151132 186.539773 257.198086 186.739409 C 258.06673 186.406682 258.962764 186.242276 259.890101 186.242276 C 260.817437 186.242276 261.713471 186.406682 262.578203 186.739409 C 262.578203 186.739409 265.810186 157.67868 266.890122 188.900174 C 266.890122 188.900174 274.418373 181.360982 271.198129 189.968814 C 271.198129 189.968814 276.578246 215.800137 250.749771 237.329502 C 250.749771 237.329502 256.129888 250.251036 257.198086 256.698102 " stroke="#6b728e" stroke-width="1" stroke-opacity="1" stroke-miterlimit="10"/></g><g clip-path="url(#dcc161b3e5)"><path stroke-linecap="butt" transform="matrix(0.998323, 0, 0, 0.99791, -70.434686, -118.755428)" fill="none" stroke-linejoin="miter" d="M 139.880228 261.000061 C 139.880228 261.000061 139.880228 246.998145 143.108299 239.470696 C 143.108299 239.470696 154.948469 245.929505 176.480677 244.849122 C 176.480677 244.849122 189.389045 244.849122 198.008971 247.009888 C 206.628897 249.170653 208.769205 247.009888 208.769205 247.009888 C 208.769205 247.009888 214.149322 242.7001 203.389088 233.011886 C 200.912278 230.815891 198.235914 228.89782 195.36391 227.25376 C 192.487992 225.613613 189.47904 224.282707 186.329226 223.264955 C 183.179412 222.243289 179.959167 221.558264 176.668492 221.205965 C 173.377816 220.853666 170.083228 220.841923 166.78864 221.170735 C 166.78864 221.170735 152.788597 222.239375 149.568352 224.388397 " stroke="#6b728e" stroke-width="1" stroke-opacity="1" stroke-miterlimit="10"/></g><g clip-path="url(#a5fb3a015e)"><path stroke-linecap="butt" transform="matrix(0.998323, 0, 0, 0.99791, -70.434686, -118.755428)" fill="none" stroke-linejoin="miter" d="M 143.108299 239.478524 C 143.108299 239.478524 126.97186 230.870693 138.808118 209.349157 C 138.808118 209.349157 151.720399 187.819792 156.028406 180.288428 " stroke="#6b728e" stroke-width="1" stroke-opacity="1" stroke-miterlimit="10"/></g><path stroke-linecap="butt" transform="matrix(0.998323, 0, 0, 0.99791, -70.434686, -118.755428)" fill="none" stroke-linejoin="miter" d="M 241.061647 215.800137 C 241.061647 215.800137 247.5217 231.951076 250.749771 237.329502 " stroke="#6b728e" stroke-width="1" stroke-opacity="1" stroke-miterlimit="10"/><path stroke-linecap="butt" transform="matrix(0.998323, 0, 0, 0.99791, -70.434686, -118.755428)" fill="none" stroke-linejoin="miter" d="M 258.281935 190.000129 C 258.281935 190.000129 259.361871 189.33859 258.281935 186.441912 " stroke="#6b728e" stroke-width="1" stroke-opacity="1" stroke-miterlimit="10"/><path stroke-linecap="butt" transform="matrix(0.998323, 0, 0, 0.99791, -70.434686, -118.755428)" fill="none" stroke-linejoin="miter" d="M 260.480935 189.898354 C 260.480935 189.898354 261.560871 189.228986 260.480935 186.340137 " stroke="#6b728e" stroke-width="1" stroke-opacity="1" stroke-miterlimit="10"/><g clip-path="url(#9ca5a07516)"><path stroke-linecap="butt" transform="matrix(0.998323, 0, 0, 0.99791, -70.434686, -118.755428)" fill="none" stroke-linejoin="miter" d="M 206.621071 247.820175 C 206.069365 246.880712 205.408099 246.027366 204.633362 245.260138 C 203.858626 244.496824 203.00172 243.843114 202.054819 243.299008 C 201.111831 242.758817 200.114064 242.347802 199.061517 242.065963 C 198.008971 241.784124 196.940773 241.643204 195.849098 241.63929 " stroke="#6b728e" stroke-width="1" stroke-opacity="1" stroke-miterlimit="10"/></g><path stroke-linecap="butt" transform="matrix(0.998323, 0, 0, 0.99791, -70.434686, -118.755428)" fill="none" stroke-linejoin="miter" d="M 210.099562 244.089723 C 210.099562 244.089723 207.689269 239.478524 200.161018 238.409885 " stroke="#6b728e" stroke-width="1" stroke-opacity="1" stroke-miterlimit="10"/><path fill="#50577a" d="M 68.582031 117.070312 C 68.582031 117.070312 74.050781 104.65625 77.277344 111.082031 C 79.398438 114.773438 80.679688 118.734375 81.109375 122.96875 C 81.109375 122.96875 70.636719 120.894531 68.582031 117.070312 Z M 68.582031 117.070312 " fill-opacity="1" fill-rule="nonzero"/><g clip-path="url(#c4b575e8e8)"><path stroke-linecap="butt" transform="matrix(0.998323, 0, 0, 0.99791, -70.434686, -118.755428)" fill="none" stroke-linejoin="miter" d="M 139.250266 236.319579 C 139.250266 236.319579 144.728203 223.879521 147.960186 230.318758 C 150.084843 234.017895 151.368246 237.987127 151.798655 242.230369 C 151.798655 242.230369 141.308405 240.151806 139.250266 236.319579 Z M 139.250266 236.319579 " stroke="#50577a" stroke-width="1" stroke-opacity="1" stroke-miterlimit="10"/></g><path fill="#50577a" d="M 78.882812 72.933594 C 78.882812 72.933594 86.941406 87.472656 80.5 94.988281 C 80.5 94.988281 65.265625 119.644531 68.582031 90.667969 C 68.582031 90.667969 77.316406 75.578125 78.882812 72.933594 Z M 78.882812 72.933594 " fill-opacity="1" fill-rule="nonzero"/><g clip-path="url(#49ed76afa0)"><path stroke-linecap="butt" transform="matrix(0.998323, 0, 0, 0.99791, -70.434686, -118.755428)" fill="none" stroke-linejoin="miter" d="M 149.568352 192.090435 C 149.568352 192.090435 157.640484 206.659943 151.188257 214.191307 C 151.188257 214.191307 135.928288 238.899189 139.250266 209.861947 C 139.250266 209.861947 147.999314 194.740504 149.568352 192.090435 Z M 149.568352 192.090435 " stroke="#50577a" stroke-width="1" stroke-opacity="1" stroke-miterlimit="10"/></g><path fill="#50577a" d="M 98.761719 21.949219 C 98.761719 21.949219 88.019531 0.464844 113.804688 7.980469 C 113.804688 7.980469 104.132812 19.804688 98.761719 21.949219 Z M 98.761719 21.949219 " fill-opacity="1" fill-rule="nonzero"/><g clip-path="url(#27e87dca8b)"><path stroke-linecap="butt" transform="matrix(0.998323, 0, 0, 0.99791, -70.434686, -118.755428)" fill="none" stroke-linejoin="miter" d="M 169.480655 140.999294 C 169.480655 140.999294 158.720421 119.469929 184.548896 127.001292 C 184.548896 127.001292 174.860772 138.850272 169.480655 140.999294 Z M 169.480655 140.999294 " stroke="#50577a" stroke-width="1" stroke-opacity="1" stroke-miterlimit="10"/></g><path fill="#50577a" d="M 160.007812 9.058594 C 160.007812 9.058594 186.871094 -0.601562 169.683594 18.726562 C 169.683594 18.726562 162.175781 12.28125 160.007812 9.058594 Z M 160.007812 9.058594 " fill-opacity="1" fill-rule="nonzero"/><g clip-path="url(#dff5eaf9d9)"><path stroke-linecap="butt" transform="matrix(0.998323, 0, 0, 0.99791, -70.434686, -118.755428)" fill="none" stroke-linejoin="miter" d="M 230.829642 128.081675 C 230.829642 128.081675 257.738054 118.40129 240.521679 137.769889 C 240.521679 137.769889 233.001253 131.31108 230.829642 128.081675 Z M 230.829642 128.081675 " stroke="#50577a" stroke-width="1" stroke-opacity="1" stroke-miterlimit="10"/></g><path fill="#50577a" d="M 186.535156 111.761719 C 186.535156 111.761719 182.042969 94.457031 187.414062 94.457031 C 187.414062 94.457031 191.703125 96.605469 196.007812 84.789062 C 196.007812 84.789062 197.683594 80.496094 200.070312 84.789062 C 200.109375 84.816406 195.320312 105.425781 186.535156 111.761719 Z M 186.535156 111.761719 " fill-opacity="1" fill-rule="nonzero"/><g clip-path="url(#9d43cdc6b1)"><path stroke-linecap="butt" transform="matrix(0.998323, 0, 0, 0.99791, -70.434686, -118.755428)" fill="none" stroke-linejoin="miter" d="M 257.401552 230.999869 C 257.401552 230.999869 252.901817 213.658944 258.281935 213.658944 C 258.281935 213.658944 262.578203 215.811881 266.890122 203.97073 C 266.890122 203.97073 268.568719 199.668771 270.959447 203.97073 C 270.998575 203.998131 266.201467 224.650664 257.401552 230.999869 Z M 257.401552 230.999869 " stroke="#50577a" stroke-width="1" stroke-opacity="1" stroke-miterlimit="10"/></g><path fill="#50577a" d="M 181.351562 121.742188 C 181.351562 121.742188 149.015625 130.394531 185.945312 135.523438 Z M 181.351562 121.742188 " fill-opacity="1" fill-rule="nonzero"/><g clip-path="url(#5d9cb49559)"><path stroke-linecap="butt" transform="matrix(0.998323, 0, 0, 0.99791, -70.434686, -118.755428)" fill="none" stroke-linejoin="miter" d="M 252.20925 241.001238 C 252.20925 241.001238 219.818988 249.6717 256.810717 254.811347 Z M 252.20925 241.001238 " stroke="#50577a" stroke-width="1" stroke-opacity="1" stroke-miterlimit="10"/></g><path stroke-linecap="butt" transform="matrix(0.998323, 0, 0, 0.99791, -70.434686, -118.755428)" fill-opacity="1" fill="#50577a" fill-rule="nonzero" stroke-linejoin="miter" d="M 177.001081 221.280339 C 177.001081 221.280339 173.209565 228.721671 182.901602 229.798139 C 192.589726 230.878522 195.039146 227.108926 195.039146 227.108926 C 195.039146 227.108926 184.059794 221.370371 177.001081 221.280339 Z M 177.001081 221.280339 " stroke="#50577a" stroke-width="1" stroke-opacity="1" stroke-miterlimit="10"/><path stroke-linecap="butt" transform="matrix(0.998323, 0, 0, 0.99791, -70.434686, -118.755428)" fill="none" stroke-linejoin="miter" d="M 162.488459 184.590387 C 162.488459 184.590387 172.168757 179.208045 201.229216 180.288428 " stroke="#6b728e" stroke-width="1" stroke-opacity="1" stroke-miterlimit="10"/><path stroke-linecap="butt" transform="matrix(0.998323, 0, 0, 0.99791, -70.434686, -118.755428)" fill="none" stroke-linejoin="miter" d="M 165.720442 196.431538 C 175.212925 190.845646 185.257115 186.535858 195.849098 183.510004 " stroke="#6b728e" stroke-width="1" stroke-opacity="1" stroke-miterlimit="10"/><path stroke-linecap="butt" transform="matrix(0.998323, 0, 0, 0.99791, -70.434686, -118.755428)" fill="none" stroke-linejoin="miter" d="M 175.40074 203.998131 C 175.40074 203.998131 181.860794 193.241277 203.400827 184.629531 " stroke="#6b728e" stroke-width="1" stroke-opacity="1" stroke-miterlimit="10"/><path stroke-linecap="butt" transform="matrix(0.998323, 0, 0, 0.99791, -70.434686, -118.755428)" fill="none" stroke-linejoin="miter" d="M 235.68153 181.360982 C 235.68153 181.360982 252.901817 169.519831 257.198086 170.600214 " stroke="#6b728e" stroke-width="1" stroke-opacity="1" stroke-miterlimit="10"/><path stroke-linecap="butt" transform="matrix(0.998323, 0, 0, 0.99791, -70.434686, -118.755428)" fill="none" stroke-linejoin="miter" d="M 237.829664 183.510004 C 237.829664 183.510004 245.361828 178.131577 252.901817 178.131577 " stroke="#6b728e" stroke-width="1" stroke-opacity="1" stroke-miterlimit="10"/><path stroke-linecap="butt" transform="matrix(0.998323, 0, 0, 0.99791, -70.434686, -118.755428)" fill="none" stroke-linejoin="miter" d="M 238.9096 185.670769 C 238.9096 185.670769 242.129845 184.590387 250.749771 186.739409 " stroke="#6b728e" stroke-width="1" stroke-opacity="1" stroke-miterlimit="10"/><path stroke-linecap="butt" transform="matrix(0.998323, 0, 0, 0.99791, -70.434686, -118.755428)" fill-opacity="1" fill="#50577a" fill-rule="nonzero" stroke-linejoin="miter" d="M 187.780879 167.370809 C 187.780879 167.370809 187.780879 159.839446 194.718296 157.67868 C 201.659625 155.521829 205.138115 157.67868 205.138115 157.67868 C 205.138115 157.67868 210.921252 160.908085 210.921252 166.290426 C 210.893862 166.858019 210.823432 167.417782 210.706047 167.969717 C 210.588663 168.525566 210.428238 169.065757 210.224772 169.594205 C 210.017392 170.122653 209.770885 170.631529 209.48525 171.120833 C 209.195702 171.606222 208.870938 172.068125 208.507047 172.502627 C 208.143155 172.937129 207.747961 173.340315 207.317552 173.712186 C 206.891055 174.080142 206.433256 174.412869 205.948067 174.710365 C 205.466792 175.003948 204.962039 175.258386 204.437722 175.473679 C 203.913405 175.685058 203.373437 175.853379 202.82173 175.978641 C 200.571863 176.236993 198.353298 176.088245 196.158211 175.532396 C 193.967036 174.972632 191.944112 174.048827 190.089438 172.749236 C 189.377307 172.032895 188.8256 171.206951 188.426493 170.279231 C 188.027386 169.351511 187.812182 168.380732 187.780879 167.370809 Z M 187.780879 167.370809 " stroke="#50577a" stroke-width="1" stroke-opacity="1" stroke-miterlimit="10"/><path stroke-linecap="butt" transform="matrix(0.998323, 0, 0, 0.99791, -70.434686, -118.755428)" fill-opacity="1" fill="#50577a" fill-rule="nonzero" stroke-linejoin="miter" d="M 225.058244 167.198574 C 225.058244 167.198574 225.058244 160.078226 231.310918 158.050551 C 237.55968 156.018962 240.68993 158.050551 240.68993 158.050551 C 240.68993 158.050551 245.901796 161.049005 245.901796 166.180822 C 245.866581 167.233804 245.667027 168.25547 245.303136 169.241907 C 244.935331 170.232257 244.426666 171.136491 243.769313 171.962436 C 243.111961 172.784466 242.345049 173.485149 241.460754 174.06057 C 240.580371 174.639906 239.629557 175.05875 238.608313 175.328845 C 236.573651 175.57154 234.566378 175.430621 232.586495 174.902172 C 230.606612 174.373724 228.79498 173.500807 227.151598 172.279504 C 226.498159 171.590565 225.993406 170.807679 225.633427 169.934761 C 225.273448 169.057928 225.081721 168.145866 225.058244 167.198574 Z M 225.058244 167.198574 " stroke="#50577a" stroke-width="1" stroke-opacity="1" stroke-miterlimit="10"/><path stroke-linecap="butt" transform="matrix(0.998323, 0, 0, 0.99791, -70.434686, -118.755428)" fill="none" stroke-linejoin="miter" d="M 210.921252 166.290426 C 210.921252 166.290426 219.52944 161.988468 225.989493 167.370809 " stroke="#50577a" stroke-width="1" stroke-opacity="1" stroke-miterlimit="10"/><path fill="#939ab5" d="M 166.457031 39.132812 C 166.457031 39.132812 174.953125 40.570312 173.886719 47.726562 C 173.886719 47.726562 167.515625 43.433594 166.457031 39.132812 Z M 166.457031 39.132812 " fill-opacity="0.8" fill-rule="nonzero"/><path fill="#939ab5" d="M 130.65625 38.386719 C 130.65625 38.386719 140.75 39.941406 139.484375 47.726562 C 139.484375 47.726562 131.914062 43.054688 130.65625 38.386719 Z M 130.65625 38.386719 " fill-opacity="0.8" fill-rule="nonzero"/><path stroke-linecap="butt" transform="matrix(0.998323, 0, 0, 0.99791, -70.434686, -118.755428)" fill-opacity="1" fill="#50577a" fill-rule="nonzero" stroke-linejoin="miter" d="M 217.381306 172.749236 L 223.841359 172.749236 C 223.841359 172.749236 225.989493 173.829619 220.609376 178.131577 C 220.609376 178.131577 216.301369 174.898258 217.381306 172.749236 Z M 217.381306 172.749236 " stroke="#50577a" stroke-width="1" stroke-opacity="1" stroke-miterlimit="10"/><path stroke-linecap="butt" transform="matrix(0.998323, 0, 0, 0.99791, -70.434686, -118.755428)" fill="none" stroke-linejoin="miter" d="M 220.609376 178.131577 C 219.52944 187.819792 210.921252 183.510004 210.921252 183.510004 " stroke="#6b728e" stroke-width="1" stroke-opacity="1" stroke-miterlimit="10"/><path stroke-linecap="butt" transform="matrix(0.998323, 0, 0, 0.99791, -70.434686, -118.755428)" fill="none" stroke-linejoin="miter" d="M 230.301412 182.441365 C 230.301412 182.441365 223.841359 188.900174 220.609376 178.131577 " stroke="#6b728e" stroke-width="1" stroke-opacity="1" stroke-miterlimit="10"/><path fill="#ffff50" d="M 201.777344 31.929688 C 201.777344 31.929688 201.777344 43.234375 193.121094 43.234375 C 193.121094 43.234375 201.109375 44.574219 201.109375 51.886719 C 201.109375 51.886719 203.773438 41.90625 209.09375 43.234375 C 209.09375 43.234375 200.441406 42.578125 201.777344 31.929688 Z M 201.777344 31.929688 " fill-opacity="1" fill-rule="nonzero"/><path fill="#ffff50" d="M 208.996094 50.890625 C 208.996094 50.890625 208.996094 56.875 204.382812 56.875 C 204.382812 56.875 208.636719 57.585938 208.636719 61.488281 C 208.636719 61.488281 210.054688 56.167969 212.890625 56.875 C 212.890625 56.875 208.285156 56.566406 208.996094 50.890625 Z M 208.996094 50.890625 " fill-opacity="1" fill-rule="nonzero"/><g fill="#5e6697" fill-opacity="1"><g transform="translate(31.077667, 161.337457)"><g><path d="M 6.5 -5.828125 L 5.421875 -5.84375 C 4.328125 -5.882812 3.125 -5.972656 1.8125 -6.109375 C 1.800781 -6.109375 1.785156 -6.128906 1.765625 -6.171875 C 1.734375 -6.171875 1.703125 -6.1875 1.671875 -6.21875 C 1.648438 -6.25 1.648438 -6.3125 1.671875 -6.40625 C 1.765625 -6.820312 1.910156 -7.035156 2.109375 -7.046875 C 3.160156 -7.191406 4.191406 -7.273438 5.203125 -7.296875 L 5.828125 -7.3125 L 9.953125 -7.3125 C 10.179688 -7.3125 10.40625 -7.296875 10.625 -7.265625 C 10.78125 -7.222656 10.800781 -6.992188 10.6875 -6.578125 C 10.5625 -6.171875 10.414062 -5.945312 10.25 -5.90625 C 10.164062 -5.882812 10.085938 -5.875 10.015625 -5.875 L 9.375 -5.875 C 8.457031 -5.84375 7.5 -5.828125 6.5 -5.828125 Z M 6.5 -5.828125 "/></g></g></g><g fill="#5e6697" fill-opacity="1"><g transform="translate(47.140747, 161.337457)"><g/></g></g><g fill="#5e6697" fill-opacity="1"><g transform="translate(61.370303, 161.337457)"><g><path d="M 12.3125 -32.4375 C 12.488281 -32.4375 12.644531 -32.375 12.78125 -32.25 C 12.925781 -32.132812 13.003906 -32 13.015625 -31.84375 C 13.035156 -31.550781 13.03125 -31.269531 13 -31 C 12.976562 -30.695312 12.9375 -30.414062 12.875 -30.15625 C 12.851562 -30.039062 12.84375 -29.9375 12.84375 -29.84375 C 12.144531 -26.632812 11.265625 -23.503906 10.203125 -20.453125 C 10.097656 -20.097656 10.046875 -19.742188 10.046875 -19.390625 C 10.085938 -18.960938 10.007812 -18.5625 9.8125 -18.1875 C 9.363281 -17.519531 9 -16.820312 8.71875 -16.09375 C 6.914062 -10.925781 4.972656 -5.828125 2.890625 -0.796875 C 1.140625 3.523438 -0.835938 7.75 -3.046875 11.875 C -3.660156 12.945312 -4.304688 14.015625 -4.984375 15.078125 C -5.328125 15.535156 -5.703125 15.960938 -6.109375 16.359375 C -6.484375 16.671875 -6.914062 16.757812 -7.40625 16.625 C -7.914062 16.5 -8.164062 16.171875 -8.15625 15.640625 C -8.09375 15.015625 -7.953125 14.410156 -7.734375 13.828125 C -6.460938 10.296875 -5.050781 6.820312 -3.5 3.40625 C -0.644531 -3.070312 2.660156 -9.296875 6.421875 -15.265625 C 7.109375 -16.410156 7.640625 -17.597656 8.015625 -18.828125 C 8.679688 -20.835938 9.304688 -22.851562 9.890625 -24.875 C 10.484375 -26.894531 10.992188 -28.9375 11.421875 -31 C 11.484375 -31.320312 11.566406 -31.65625 11.671875 -32 C 11.785156 -32.289062 12 -32.4375 12.3125 -32.4375 Z M -5.359375 12.875 C -3.523438 9.539062 -1.859375 6.140625 -0.359375 2.671875 C 1.140625 -0.785156 2.519531 -4.3125 3.78125 -7.90625 C 3.757812 -7.882812 3.738281 -7.851562 3.71875 -7.8125 C 3.65625 -7.78125 3.597656 -7.734375 3.546875 -7.671875 C 3.398438 -7.421875 3.257812 -7.175781 3.125 -6.9375 C 1.476562 -3.875 -0.046875 -0.753906 -1.453125 2.421875 C -2.859375 5.609375 -4.195312 8.804688 -5.46875 12.015625 C -5.488281 12.054688 -5.5 12.085938 -5.5 12.109375 C -5.550781 12.210938 -5.578125 12.328125 -5.578125 12.453125 C -5.578125 12.578125 -5.503906 12.71875 -5.359375 12.875 Z M 71.046875 -33.171875 C 71.046875 -33.085938 71.003906 -33.003906 70.921875 -32.921875 C 70.847656 -32.847656 70.757812 -32.789062 70.65625 -32.75 C 70.5625 -32.707031 70.476562 -32.710938 70.40625 -32.765625 C 69.894531 -33.078125 69.351562 -33.285156 68.78125 -33.390625 C 68.207031 -33.492188 67.640625 -33.578125 67.078125 -33.640625 C 66.640625 -33.660156 66.21875 -33.710938 65.8125 -33.796875 C 64.28125 -34.023438 62.742188 -34.21875 61.203125 -34.375 C 56.160156 -34.789062 51.109375 -35.015625 46.046875 -35.046875 C 41.171875 -35.109375 36.285156 -35 31.390625 -34.71875 C 25.878906 -34.445312 20.375 -34.039062 14.875 -33.5 C 9.832031 -33.039062 4.796875 -32.488281 -0.234375 -31.84375 C -0.546875 -31.800781 -0.867188 -31.765625 -1.203125 -31.734375 C -3.117188 -31.472656 -5.035156 -31.191406 -6.953125 -30.890625 C -8.867188 -30.597656 -10.78125 -30.238281 -12.6875 -29.8125 C -12.832031 -29.769531 -12.988281 -29.726562 -13.15625 -29.6875 C -13.894531 -29.507812 -14.640625 -29.3125 -15.390625 -29.09375 C -16.140625 -28.882812 -16.859375 -28.601562 -17.546875 -28.25 C -17.640625 -28.195312 -17.742188 -28.15625 -17.859375 -28.125 C -18.015625 -28.113281 -18.160156 -28.125 -18.296875 -28.15625 C -18.429688 -28.1875 -18.539062 -28.265625 -18.625 -28.390625 C -18.707031 -28.535156 -18.71875 -28.671875 -18.65625 -28.796875 C -18.601562 -28.921875 -18.503906 -29.023438 -18.359375 -29.109375 C -17.910156 -29.335938 -17.441406 -29.539062 -16.953125 -29.71875 C -15.734375 -30.132812 -14.5 -30.484375 -13.25 -30.765625 C -12.007812 -31.046875 -10.757812 -31.296875 -9.5 -31.515625 C -5.875 -32.128906 -2.242188 -32.664062 1.390625 -33.125 C 5.023438 -33.582031 8.675781 -33.988281 12.34375 -34.34375 C 17.488281 -34.875 22.640625 -35.296875 27.796875 -35.609375 C 32.285156 -35.898438 36.78125 -36.070312 41.28125 -36.125 C 44.582031 -36.15625 47.878906 -36.117188 51.171875 -36.015625 C 54.472656 -35.921875 57.769531 -35.726562 61.0625 -35.4375 C 64.070312 -35.125 67.054688 -34.664062 70.015625 -34.0625 C 70.285156 -34 70.539062 -33.898438 70.78125 -33.765625 C 70.976562 -33.617188 71.066406 -33.421875 71.046875 -33.171875 Z M 71.046875 -33.171875 "/></g></g></g><g fill="#5e6697" fill-opacity="1"><g transform="translate(75.292047, 161.337457)"><g><path d="M 6.421875 -8.21875 C 6.335938 -7.601562 6.046875 -7.203125 5.546875 -7.015625 C 5.046875 -6.828125 4.882812 -7.070312 5.0625 -7.75 C 5.238281 -8.425781 4.929688 -8.597656 4.140625 -8.265625 C 3.359375 -7.929688 2.710938 -7.507812 2.203125 -7 C 1.421875 -6.195312 0.726562 -5.332031 0.125 -4.40625 C 0.0625 -4.320312 0.0078125 -4.253906 -0.03125 -4.203125 C -0.207031 -3.941406 -0.382812 -3.695312 -0.5625 -3.46875 C -0.675781 -3.300781 -0.8125 -3.195312 -0.96875 -3.15625 C -1.125 -3.125 -1.28125 -3.117188 -1.4375 -3.140625 C -1.59375 -3.160156 -1.707031 -3.21875 -1.78125 -3.3125 C -1.863281 -3.414062 -1.875 -3.535156 -1.8125 -3.671875 C -1.71875 -3.910156 -1.601562 -4.15625 -1.46875 -4.40625 C -0.664062 -5.894531 0.148438 -7.390625 0.984375 -8.890625 C 0.992188 -8.898438 1 -8.914062 1 -8.9375 C 1.113281 -9.164062 1.253906 -9.378906 1.421875 -9.578125 C 1.597656 -9.773438 1.800781 -9.851562 2.03125 -9.8125 C 2.257812 -9.78125 2.414062 -9.644531 2.5 -9.40625 C 2.601562 -9.09375 2.6875 -8.914062 2.75 -8.875 C 2.820312 -8.832031 2.984375 -8.863281 3.234375 -8.96875 C 3.773438 -9.164062 4.296875 -9.300781 4.796875 -9.375 C 5.304688 -9.457031 5.722656 -9.4375 6.046875 -9.3125 C 6.378906 -9.195312 6.503906 -8.832031 6.421875 -8.21875 Z M 6.421875 -8.21875 "/></g></g></g><g fill="#5e6697" fill-opacity="1"><g transform="translate(86.095465, 161.337457)"><g><path d="M 0.328125 -2.375 C -0.515625 -2.375 -0.9375 -2.8125 -0.9375 -3.6875 C -0.9375 -4.769531 -0.234375 -6.675781 1.171875 -9.40625 C 1.222656 -9.519531 1.316406 -9.578125 1.453125 -9.578125 C 2.015625 -9.578125 2.296875 -9.351562 2.296875 -8.90625 C 2.296875 -8.75 2.25 -8.554688 2.15625 -8.328125 C 2.113281 -8.265625 1.644531 -7.085938 0.75 -4.796875 C 0.601562 -4.421875 0.53125 -4.144531 0.53125 -3.96875 C 0.53125 -3.769531 0.617188 -3.671875 0.796875 -3.671875 C 1.453125 -3.671875 3.160156 -5.289062 5.921875 -8.53125 C 6.285156 -8.96875 6.640625 -9.1875 6.984375 -9.1875 C 7.492188 -9.1875 7.75 -9 7.75 -8.625 C 7.75 -8.476562 7.59375 -7.9375 7.28125 -7 C 6.851562 -5.71875 6.640625 -4.984375 6.640625 -4.796875 C 6.640625 -4.492188 6.738281 -4.34375 6.9375 -4.34375 C 7.425781 -4.34375 8.859375 -5.21875 11.234375 -6.96875 C 11.359375 -7.082031 11.472656 -7.140625 11.578125 -7.140625 C 11.796875 -7.140625 11.90625 -6.953125 11.90625 -6.578125 C 11.90625 -6.484375 11.875 -6.40625 11.8125 -6.34375 C 10.550781 -5.257812 9.484375 -4.4375 8.609375 -3.875 C 7.804688 -3.363281 7.09375 -3.109375 6.46875 -3.109375 L 6.28125 -3.109375 C 5.351562 -3.304688 4.890625 -4.023438 4.890625 -5.265625 C 3.910156 -4.398438 3.097656 -3.703125 2.453125 -3.171875 C 1.804688 -2.640625 1.097656 -2.375 0.328125 -2.375 Z M 0.328125 -2.375 "/></g></g></g><g fill="#5e6697" fill-opacity="1"><g transform="translate(101.208325, 161.337457)"><g><path d="M 2.125 -3.171875 L 2.09375 -3.171875 C 0.789062 -3.191406 -0.0625 -3.476562 -0.46875 -4.03125 C -0.875 -4.59375 -0.859375 -5.335938 -0.421875 -6.265625 C -0.046875 -6.960938 0.425781 -7.578125 1 -8.109375 C 1.195312 -8.285156 1.394531 -8.425781 1.59375 -8.53125 C 1.800781 -8.644531 2.035156 -8.703125 2.296875 -8.703125 C 2.453125 -8.722656 2.628906 -8.695312 2.828125 -8.625 C 2.890625 -8.601562 2.953125 -8.578125 3.015625 -8.546875 C 3.160156 -8.578125 3.304688 -8.628906 3.453125 -8.703125 C 3.484375 -8.722656 3.53125 -8.742188 3.59375 -8.765625 C 3.894531 -8.878906 4.207031 -8.925781 4.53125 -8.90625 C 4.664062 -8.90625 4.804688 -8.90625 4.953125 -8.90625 C 5.472656 -8.832031 5.867188 -8.613281 6.140625 -8.25 C 6.410156 -7.882812 6.503906 -7.445312 6.421875 -6.9375 C 6.378906 -6.625 6.28125 -6.328125 6.125 -6.046875 C 5.101562 -4.210938 3.796875 -3.253906 2.203125 -3.171875 Z M 4.234375 -7.96875 C 3.535156 -7.988281 2.910156 -7.78125 2.359375 -7.34375 C 1.804688 -6.914062 1.394531 -6.421875 1.125 -5.859375 C 0.863281 -5.296875 0.789062 -4.832031 0.90625 -4.46875 C 1.03125 -4.113281 1.40625 -4.015625 2.03125 -4.171875 C 2.738281 -4.390625 3.359375 -4.789062 3.890625 -5.375 C 4.429688 -5.96875 4.765625 -6.53125 4.890625 -7.0625 C 5.015625 -7.59375 4.796875 -7.894531 4.234375 -7.96875 Z M 4.234375 -7.96875 "/></g></g></g><g fill="#5e6697" fill-opacity="1"><g transform="translate(112.426636, 161.337457)"><g><path d="M 10.59375 -6.671875 C 10.738281 -6.492188 10.5625 -6.164062 10.0625 -5.6875 C 9.5625 -5.21875 9.03125 -4.820312 8.46875 -4.5 C 7.90625 -4.1875 7.253906 -3.867188 6.515625 -3.546875 C 6.023438 -3.328125 5.503906 -3.253906 4.953125 -3.328125 C 4.398438 -3.398438 4.125 -3.734375 4.125 -4.328125 C 4.125 -4.929688 4.257812 -5.523438 4.53125 -6.109375 C 4.8125 -6.722656 4.875 -7.035156 4.71875 -7.046875 C 4.5625 -7.066406 4.238281 -6.921875 3.75 -6.609375 C 2.46875 -5.773438 1.28125 -4.816406 0.1875 -3.734375 C -0.101562 -3.378906 -0.476562 -3.179688 -0.9375 -3.140625 C -1.164062 -3.140625 -1.34375 -3.210938 -1.46875 -3.359375 C -1.601562 -3.515625 -1.625 -3.675781 -1.53125 -3.84375 C -0.738281 -5.289062 0.0546875 -6.726562 0.859375 -8.15625 C 1.035156 -8.445312 1.300781 -8.628906 1.65625 -8.703125 C 1.8125 -8.722656 1.953125 -8.671875 2.078125 -8.546875 C 2.210938 -8.429688 2.28125 -8.300781 2.28125 -8.15625 C 2.257812 -8.007812 2.195312 -7.835938 2.09375 -7.640625 C 2.050781 -7.523438 2.007812 -7.410156 1.96875 -7.296875 C 1.925781 -7.191406 1.910156 -7.101562 1.921875 -7.03125 C 1.941406 -6.96875 2 -6.945312 2.09375 -6.96875 C 2.226562 -7.039062 2.363281 -7.117188 2.5 -7.203125 C 2.84375 -7.398438 3.171875 -7.585938 3.484375 -7.765625 C 3.753906 -7.921875 4.039062 -8.0625 4.34375 -8.1875 C 4.644531 -8.3125 4.960938 -8.394531 5.296875 -8.4375 C 5.835938 -8.476562 6.21875 -8.359375 6.4375 -8.078125 C 6.65625 -7.804688 6.679688 -7.425781 6.515625 -6.9375 C 6.335938 -6.488281 6.148438 -6.046875 5.953125 -5.609375 C 5.710938 -5.191406 5.671875 -4.875 5.828125 -4.65625 C 5.992188 -4.445312 6.738281 -4.695312 8.0625 -5.40625 L 9.078125 -6 C 10.015625 -6.601562 10.519531 -6.828125 10.59375 -6.671875 Z M 10.59375 -6.671875 "/></g></g></g><g fill="#5e6697" fill-opacity="1"><g transform="translate(126.348382, 161.337457)"><g><path d="M 11.8125 -7.171875 C 11.882812 -7.191406 11.960938 -7.191406 12.046875 -7.171875 C 12.140625 -7.148438 12.210938 -7.109375 12.265625 -7.046875 C 12.316406 -6.953125 12.3125 -6.851562 12.25 -6.75 C 12.195312 -6.65625 12.109375 -6.582031 11.984375 -6.53125 C 11.179688 -6.132812 10.375 -5.726562 9.5625 -5.3125 C 8.613281 -4.820312 7.65625 -4.332031 6.6875 -3.84375 C 6.550781 -3.789062 6.414062 -3.722656 6.28125 -3.640625 C 6.0625 -3.523438 5.847656 -3.414062 5.640625 -3.3125 C 5.140625 -3.070312 4.8125 -2.695312 4.65625 -2.1875 C 4.226562 -0.976562 3.78125 0.222656 3.3125 1.421875 C 2.695312 3.015625 1.9375 4.535156 1.03125 5.984375 C 0.519531 6.804688 -0.09375 7.539062 -0.8125 8.1875 C -1.675781 9 -2.664062 9.515625 -3.78125 9.734375 C -5.632812 10.109375 -7.414062 9.988281 -9.125 9.375 C -9.832031 9.125 -10.441406 8.71875 -10.953125 8.15625 C -11.640625 7.414062 -11.671875 6.625 -11.046875 5.78125 C -10.765625 5.425781 -10.453125 5.09375 -10.109375 4.78125 C -9.359375 4.09375 -8.539062 3.476562 -7.65625 2.9375 C -4.488281 0.90625 -1.238281 -0.957031 2.09375 -2.65625 C 2.113281 -2.65625 2.125 -2.65625 2.125 -2.65625 C 2.476562 -2.84375 2.820312 -3.03125 3.15625 -3.21875 C 3.207031 -3.269531 3.28125 -3.367188 3.375 -3.515625 C 3.476562 -3.660156 3.554688 -3.804688 3.609375 -3.953125 C 3.660156 -4.097656 3.644531 -4.203125 3.5625 -4.265625 C 3.488281 -4.335938 3.304688 -4.304688 3.015625 -4.171875 C 2.898438 -4.128906 2.789062 -4.082031 2.6875 -4.03125 C 2.425781 -3.90625 2.164062 -3.789062 1.90625 -3.6875 C 0.382812 -3.320312 -0.375 -3.910156 -0.375 -5.453125 C -0.34375 -6.390625 -0.0664062 -7.226562 0.453125 -7.96875 C 0.984375 -8.71875 1.65625 -9.300781 2.46875 -9.71875 C 3.28125 -10.144531 4.15625 -10.304688 5.09375 -10.203125 C 5.195312 -10.203125 5.296875 -10.191406 5.390625 -10.171875 C 5.648438 -10.128906 5.910156 -10.109375 6.171875 -10.109375 C 6.441406 -10.109375 6.710938 -10.171875 6.984375 -10.296875 C 7.273438 -10.410156 7.492188 -10.375 7.640625 -10.1875 C 7.796875 -10.007812 7.820312 -9.769531 7.71875 -9.46875 C 7.457031 -8.914062 7.203125 -8.351562 6.953125 -7.78125 C 6.773438 -7.4375 6.609375 -7.078125 6.453125 -6.703125 C 6.273438 -6.304688 6.097656 -5.90625 5.921875 -5.5 C 5.679688 -4.96875 5.644531 -4.6875 5.8125 -4.65625 C 5.988281 -4.625 6.28125 -4.71875 6.6875 -4.9375 C 6.738281 -4.957031 6.796875 -4.972656 6.859375 -4.984375 C 7.609375 -5.347656 8.363281 -5.703125 9.125 -6.046875 C 9.65625 -6.285156 10.1875 -6.53125 10.71875 -6.78125 C 11.070312 -6.945312 11.4375 -7.078125 11.8125 -7.171875 Z M 2.296875 0.015625 C 2.578125 -0.773438 2.695312 -1.289062 2.65625 -1.53125 C 2.613281 -1.78125 2.441406 -1.84375 2.140625 -1.71875 C 1.835938 -1.601562 1.441406 -1.390625 0.953125 -1.078125 C 0.640625 -0.890625 0.296875 -0.695312 -0.078125 -0.5 C -2.335938 0.726562 -4.535156 2.035156 -6.671875 3.421875 C -7.617188 3.972656 -8.460938 4.644531 -9.203125 5.4375 C -9.992188 6.269531 -9.96875 7.015625 -9.125 7.671875 C -8.632812 8.054688 -8.085938 8.328125 -7.484375 8.484375 C -6.878906 8.640625 -6.21875 8.71875 -5.5 8.71875 C -4.65625 8.78125 -3.867188 8.625 -3.140625 8.25 C -2.421875 7.875 -1.753906 7.316406 -1.140625 6.578125 C -0.773438 6.078125 -0.421875 5.566406 -0.078125 5.046875 C 0.898438 3.441406 1.691406 1.765625 2.296875 0.015625 Z M 1.421875 -4.71875 C 1.648438 -4.625 1.984375 -4.707031 2.421875 -4.96875 C 2.867188 -5.238281 3.320312 -5.609375 3.78125 -6.078125 C 4.25 -6.546875 4.617188 -7.023438 4.890625 -7.515625 C 5.160156 -8.003906 5.226562 -8.421875 5.09375 -8.765625 C 5.0625 -8.859375 5.003906 -8.945312 4.921875 -9.03125 C 4.773438 -9.195312 4.613281 -9.273438 4.4375 -9.265625 C 4.269531 -9.265625 4.085938 -9.238281 3.890625 -9.1875 C 3.242188 -8.925781 2.671875 -8.476562 2.171875 -7.84375 C 1.671875 -7.21875 1.335938 -6.597656 1.171875 -5.984375 C 1.003906 -5.367188 1.085938 -4.945312 1.421875 -4.71875 Z M 1.421875 -4.71875 "/></g></g></g><g fill="#5e6697" fill-opacity="1"><g transform="translate(141.889509, 161.337457)"><g/></g></g><g fill="#5e6697" fill-opacity="1"><g transform="translate(156.119067, 161.337457)"><g><path d="M 12.3125 -32.4375 C 12.488281 -32.4375 12.644531 -32.375 12.78125 -32.25 C 12.925781 -32.132812 13.003906 -32 13.015625 -31.84375 C 13.035156 -31.550781 13.03125 -31.269531 13 -31 C 12.976562 -30.695312 12.9375 -30.414062 12.875 -30.15625 C 12.851562 -30.039062 12.84375 -29.9375 12.84375 -29.84375 C 12.144531 -26.632812 11.265625 -23.503906 10.203125 -20.453125 C 10.097656 -20.097656 10.046875 -19.742188 10.046875 -19.390625 C 10.085938 -18.960938 10.007812 -18.5625 9.8125 -18.1875 C 9.363281 -17.519531 9 -16.820312 8.71875 -16.09375 C 6.914062 -10.925781 4.972656 -5.828125 2.890625 -0.796875 C 1.140625 3.523438 -0.835938 7.75 -3.046875 11.875 C -3.660156 12.945312 -4.304688 14.015625 -4.984375 15.078125 C -5.328125 15.535156 -5.703125 15.960938 -6.109375 16.359375 C -6.484375 16.671875 -6.914062 16.757812 -7.40625 16.625 C -7.914062 16.5 -8.164062 16.171875 -8.15625 15.640625 C -8.09375 15.015625 -7.953125 14.410156 -7.734375 13.828125 C -6.460938 10.296875 -5.050781 6.820312 -3.5 3.40625 C -0.644531 -3.070312 2.660156 -9.296875 6.421875 -15.265625 C 7.109375 -16.410156 7.640625 -17.597656 8.015625 -18.828125 C 8.679688 -20.835938 9.304688 -22.851562 9.890625 -24.875 C 10.484375 -26.894531 10.992188 -28.9375 11.421875 -31 C 11.484375 -31.320312 11.566406 -31.65625 11.671875 -32 C 11.785156 -32.289062 12 -32.4375 12.3125 -32.4375 Z M -5.359375 12.875 C -3.523438 9.539062 -1.859375 6.140625 -0.359375 2.671875 C 1.140625 -0.785156 2.519531 -4.3125 3.78125 -7.90625 C 3.757812 -7.882812 3.738281 -7.851562 3.71875 -7.8125 C 3.65625 -7.78125 3.597656 -7.734375 3.546875 -7.671875 C 3.398438 -7.421875 3.257812 -7.175781 3.125 -6.9375 C 1.476562 -3.875 -0.046875 -0.753906 -1.453125 2.421875 C -2.859375 5.609375 -4.195312 8.804688 -5.46875 12.015625 C -5.488281 12.054688 -5.5 12.085938 -5.5 12.109375 C -5.550781 12.210938 -5.578125 12.328125 -5.578125 12.453125 C -5.578125 12.578125 -5.503906 12.71875 -5.359375 12.875 Z M 71.046875 -33.171875 C 71.046875 -33.085938 71.003906 -33.003906 70.921875 -32.921875 C 70.847656 -32.847656 70.757812 -32.789062 70.65625 -32.75 C 70.5625 -32.707031 70.476562 -32.710938 70.40625 -32.765625 C 69.894531 -33.078125 69.351562 -33.285156 68.78125 -33.390625 C 68.207031 -33.492188 67.640625 -33.578125 67.078125 -33.640625 C 66.640625 -33.660156 66.21875 -33.710938 65.8125 -33.796875 C 64.28125 -34.023438 62.742188 -34.21875 61.203125 -34.375 C 56.160156 -34.789062 51.109375 -35.015625 46.046875 -35.046875 C 41.171875 -35.109375 36.285156 -35 31.390625 -34.71875 C 25.878906 -34.445312 20.375 -34.039062 14.875 -33.5 C 9.832031 -33.039062 4.796875 -32.488281 -0.234375 -31.84375 C -0.546875 -31.800781 -0.867188 -31.765625 -1.203125 -31.734375 C -3.117188 -31.472656 -5.035156 -31.191406 -6.953125 -30.890625 C -8.867188 -30.597656 -10.78125 -30.238281 -12.6875 -29.8125 C -12.832031 -29.769531 -12.988281 -29.726562 -13.15625 -29.6875 C -13.894531 -29.507812 -14.640625 -29.3125 -15.390625 -29.09375 C -16.140625 -28.882812 -16.859375 -28.601562 -17.546875 -28.25 C -17.640625 -28.195312 -17.742188 -28.15625 -17.859375 -28.125 C -18.015625 -28.113281 -18.160156 -28.125 -18.296875 -28.15625 C -18.429688 -28.1875 -18.539062 -28.265625 -18.625 -28.390625 C -18.707031 -28.535156 -18.71875 -28.671875 -18.65625 -28.796875 C -18.601562 -28.921875 -18.503906 -29.023438 -18.359375 -29.109375 C -17.910156 -29.335938 -17.441406 -29.539062 -16.953125 -29.71875 C -15.734375 -30.132812 -14.5 -30.484375 -13.25 -30.765625 C -12.007812 -31.046875 -10.757812 -31.296875 -9.5 -31.515625 C -5.875 -32.128906 -2.242188 -32.664062 1.390625 -33.125 C 5.023438 -33.582031 8.675781 -33.988281 12.34375 -34.34375 C 17.488281 -34.875 22.640625 -35.296875 27.796875 -35.609375 C 32.285156 -35.898438 36.78125 -36.070312 41.28125 -36.125 C 44.582031 -36.15625 47.878906 -36.117188 51.171875 -36.015625 C 54.472656 -35.921875 57.769531 -35.726562 61.0625 -35.4375 C 64.070312 -35.125 67.054688 -34.664062 70.015625 -34.0625 C 70.285156 -34 70.539062 -33.898438 70.78125 -33.765625 C 70.976562 -33.617188 71.066406 -33.421875 71.046875 -33.171875 Z M 71.046875 -33.171875 "/></g></g></g><g fill="#5e6697" fill-opacity="1"><g transform="translate(170.040814, 161.337457)"><g><path d="M 10.859375 -6.234375 C 10.703125 -6.085938 10.535156 -5.957031 10.359375 -5.84375 C 9.785156 -5.488281 9.269531 -5.207031 8.8125 -5 C 8.351562 -4.800781 7.8125 -4.59375 7.1875 -4.375 C 6.257812 -4.101562 5.660156 -4.164062 5.390625 -4.5625 C 5.128906 -4.96875 5.085938 -5.523438 5.265625 -6.234375 C 5.515625 -7.253906 5.660156 -8 5.703125 -8.46875 C 5.742188 -8.945312 5.585938 -9.109375 5.234375 -8.953125 C 4.878906 -8.804688 4.238281 -8.320312 3.3125 -7.5 C 2.019531 -6.382812 0.914062 -5.109375 0 -3.671875 C -0.113281 -3.472656 -0.253906 -3.3125 -0.421875 -3.1875 C -0.597656 -3.0625 -0.8125 -3 -1.0625 -3 C -1.300781 -3 -1.472656 -3.0625 -1.578125 -3.1875 C -1.679688 -3.3125 -1.6875 -3.476562 -1.59375 -3.6875 C -1.0625 -4.851562 -0.519531 -6.003906 0.03125 -7.140625 C 0.96875 -9.117188 1.898438 -11.09375 2.828125 -13.0625 C 3.515625 -14.53125 4.191406 -16.003906 4.859375 -17.484375 C 5.265625 -18.347656 5.664062 -19.210938 6.0625 -20.078125 C 6.09375 -20.148438 6.132812 -20.222656 6.1875 -20.296875 C 6.21875 -20.398438 6.257812 -20.5 6.3125 -20.59375 C 6.363281 -20.6875 6.421875 -20.796875 6.484375 -20.921875 C 6.535156 -21.015625 6.632812 -21.09375 6.78125 -21.15625 C 6.925781 -21.21875 7.070312 -21.253906 7.21875 -21.265625 C 7.363281 -21.285156 7.476562 -21.28125 7.5625 -21.25 C 7.675781 -21.164062 7.738281 -21.078125 7.75 -20.984375 C 7.769531 -20.898438 7.753906 -20.8125 7.703125 -20.71875 C 7.691406 -20.695312 7.6875 -20.664062 7.6875 -20.625 C 7.5 -20.09375 7.3125 -19.582031 7.125 -19.09375 C 5.988281 -16.363281 4.75 -13.675781 3.40625 -11.03125 C 3.3125 -10.851562 3.195312 -10.640625 3.0625 -10.390625 C 2.863281 -10.023438 2.679688 -9.671875 2.515625 -9.328125 C 2.347656 -8.984375 2.289062 -8.753906 2.34375 -8.640625 C 2.40625 -8.523438 2.671875 -8.613281 3.140625 -8.90625 C 3.285156 -9.007812 3.414062 -9.109375 3.53125 -9.203125 C 3.90625 -9.453125 4.273438 -9.691406 4.640625 -9.921875 C 4.960938 -10.128906 5.320312 -10.242188 5.71875 -10.265625 C 6.65625 -10.328125 7.179688 -9.90625 7.296875 -9 C 7.335938 -8.625 7.320312 -8.257812 7.25 -7.90625 C 7.175781 -7.550781 7.09375 -7.203125 7 -6.859375 C 6.976562 -6.753906 6.957031 -6.65625 6.9375 -6.5625 C 6.78125 -5.945312 6.820312 -5.59375 7.0625 -5.5 C 7.3125 -5.414062 7.65625 -5.46875 8.09375 -5.65625 C 8.539062 -5.84375 8.992188 -6.070312 9.453125 -6.34375 C 9.765625 -6.5 10.035156 -6.632812 10.265625 -6.75 C 10.503906 -6.875 10.679688 -6.925781 10.796875 -6.90625 C 11.015625 -6.875 11.113281 -6.785156 11.09375 -6.640625 C 11.070312 -6.503906 10.992188 -6.367188 10.859375 -6.234375 Z M 10.859375 -6.234375 "/></g></g></g><g fill="#5e6697" fill-opacity="1"><g transform="translate(184.364061, 161.337457)"><g><path d="M 5.3125 -5.640625 C 4.84375 -5.078125 4.28125 -4.554688 3.625 -4.078125 C 2.976562 -3.609375 2.242188 -3.289062 1.421875 -3.125 C 0.597656 -2.957031 -0.0351562 -3.015625 -0.484375 -3.296875 C -0.941406 -3.585938 -1.035156 -4.222656 -0.765625 -5.203125 C -0.410156 -6.222656 0.078125 -7.191406 0.703125 -8.109375 C 0.847656 -8.304688 1.054688 -8.445312 1.328125 -8.53125 C 1.523438 -8.570312 1.695312 -8.535156 1.84375 -8.421875 C 1.988281 -8.304688 2.039062 -8.164062 2 -8 C 1.875 -7.675781 1.726562 -7.351562 1.5625 -7.03125 C 1.40625 -6.71875 1.300781 -6.507812 1.25 -6.40625 C 0.9375 -5.832031 0.71875 -5.234375 0.59375 -4.609375 C 0.59375 -4.253906 1.066406 -4.234375 2.015625 -4.546875 C 2.972656 -4.859375 3.898438 -5.429688 4.796875 -6.265625 C 5.703125 -7.097656 6.132812 -7.34375 6.09375 -7 C 6.050781 -6.65625 5.789062 -6.203125 5.3125 -5.640625 Z M 2.984375 -10.109375 C 2.941406 -10.078125 2.847656 -10.035156 2.703125 -9.984375 C 2.566406 -9.941406 2.421875 -9.90625 2.265625 -9.875 C 2.109375 -9.851562 1.984375 -9.878906 1.890625 -9.953125 C 1.804688 -10.023438 1.804688 -10.171875 1.890625 -10.390625 C 2.023438 -10.765625 2.171875 -11.09375 2.328125 -11.375 C 2.484375 -11.65625 2.6875 -11.960938 2.9375 -12.296875 C 3.101562 -12.453125 3.28125 -12.535156 3.46875 -12.546875 C 3.65625 -12.554688 3.8125 -12.503906 3.9375 -12.390625 C 4.0625 -12.285156 4.097656 -12.132812 4.046875 -11.9375 C 3.847656 -11.226562 3.492188 -10.617188 2.984375 -10.109375 Z M 2.984375 -10.109375 "/></g></g></g><g fill="#5e6697" fill-opacity="1"><g transform="translate(193.695314, 161.337457)"><g><path d="M 10.59375 -6.671875 C 10.738281 -6.492188 10.5625 -6.164062 10.0625 -5.6875 C 9.5625 -5.21875 9.03125 -4.820312 8.46875 -4.5 C 7.90625 -4.1875 7.253906 -3.867188 6.515625 -3.546875 C 6.023438 -3.328125 5.503906 -3.253906 4.953125 -3.328125 C 4.398438 -3.398438 4.125 -3.734375 4.125 -4.328125 C 4.125 -4.929688 4.257812 -5.523438 4.53125 -6.109375 C 4.8125 -6.722656 4.875 -7.035156 4.71875 -7.046875 C 4.5625 -7.066406 4.238281 -6.921875 3.75 -6.609375 C 2.46875 -5.773438 1.28125 -4.816406 0.1875 -3.734375 C -0.101562 -3.378906 -0.476562 -3.179688 -0.9375 -3.140625 C -1.164062 -3.140625 -1.34375 -3.210938 -1.46875 -3.359375 C -1.601562 -3.515625 -1.625 -3.675781 -1.53125 -3.84375 C -0.738281 -5.289062 0.0546875 -6.726562 0.859375 -8.15625 C 1.035156 -8.445312 1.300781 -8.628906 1.65625 -8.703125 C 1.8125 -8.722656 1.953125 -8.671875 2.078125 -8.546875 C 2.210938 -8.429688 2.28125 -8.300781 2.28125 -8.15625 C 2.257812 -8.007812 2.195312 -7.835938 2.09375 -7.640625 C 2.050781 -7.523438 2.007812 -7.410156 1.96875 -7.296875 C 1.925781 -7.191406 1.910156 -7.101562 1.921875 -7.03125 C 1.941406 -6.96875 2 -6.945312 2.09375 -6.96875 C 2.226562 -7.039062 2.363281 -7.117188 2.5 -7.203125 C 2.84375 -7.398438 3.171875 -7.585938 3.484375 -7.765625 C 3.753906 -7.921875 4.039062 -8.0625 4.34375 -8.1875 C 4.644531 -8.3125 4.960938 -8.394531 5.296875 -8.4375 C 5.835938 -8.476562 6.21875 -8.359375 6.4375 -8.078125 C 6.65625 -7.804688 6.679688 -7.425781 6.515625 -6.9375 C 6.335938 -6.488281 6.148438 -6.046875 5.953125 -5.609375 C 5.710938 -5.191406 5.671875 -4.875 5.828125 -4.65625 C 5.992188 -4.445312 6.738281 -4.695312 8.0625 -5.40625 L 9.078125 -6 C 10.015625 -6.601562 10.519531 -6.828125 10.59375 -6.671875 Z M 10.59375 -6.671875 "/></g></g></g><g fill="#5e6697" fill-opacity="1"><g transform="translate(207.617061, 161.337457)"><g><path d="M 10.859375 -6.234375 C 10.703125 -6.085938 10.535156 -5.957031 10.359375 -5.84375 C 9.785156 -5.488281 9.269531 -5.207031 8.8125 -5 C 8.351562 -4.800781 7.8125 -4.59375 7.1875 -4.375 C 6.257812 -4.101562 5.660156 -4.164062 5.390625 -4.5625 C 5.128906 -4.96875 5.085938 -5.523438 5.265625 -6.234375 C 5.515625 -7.253906 5.660156 -8 5.703125 -8.46875 C 5.742188 -8.945312 5.585938 -9.109375 5.234375 -8.953125 C 4.878906 -8.804688 4.238281 -8.320312 3.3125 -7.5 C 2.019531 -6.382812 0.914062 -5.109375 0 -3.671875 C -0.113281 -3.472656 -0.253906 -3.3125 -0.421875 -3.1875 C -0.597656 -3.0625 -0.8125 -3 -1.0625 -3 C -1.300781 -3 -1.472656 -3.0625 -1.578125 -3.1875 C -1.679688 -3.3125 -1.6875 -3.476562 -1.59375 -3.6875 C -1.0625 -4.851562 -0.519531 -6.003906 0.03125 -7.140625 C 0.96875 -9.117188 1.898438 -11.09375 2.828125 -13.0625 C 3.515625 -14.53125 4.191406 -16.003906 4.859375 -17.484375 C 5.265625 -18.347656 5.664062 -19.210938 6.0625 -20.078125 C 6.09375 -20.148438 6.132812 -20.222656 6.1875 -20.296875 C 6.21875 -20.398438 6.257812 -20.5 6.3125 -20.59375 C 6.363281 -20.6875 6.421875 -20.796875 6.484375 -20.921875 C 6.535156 -21.015625 6.632812 -21.09375 6.78125 -21.15625 C 6.925781 -21.21875 7.070312 -21.253906 7.21875 -21.265625 C 7.363281 -21.285156 7.476562 -21.28125 7.5625 -21.25 C 7.675781 -21.164062 7.738281 -21.078125 7.75 -20.984375 C 7.769531 -20.898438 7.753906 -20.8125 7.703125 -20.71875 C 7.691406 -20.695312 7.6875 -20.664062 7.6875 -20.625 C 7.5 -20.09375 7.3125 -19.582031 7.125 -19.09375 C 5.988281 -16.363281 4.75 -13.675781 3.40625 -11.03125 C 3.3125 -10.851562 3.195312 -10.640625 3.0625 -10.390625 C 2.863281 -10.023438 2.679688 -9.671875 2.515625 -9.328125 C 2.347656 -8.984375 2.289062 -8.753906 2.34375 -8.640625 C 2.40625 -8.523438 2.671875 -8.613281 3.140625 -8.90625 C 3.285156 -9.007812 3.414062 -9.109375 3.53125 -9.203125 C 3.90625 -9.453125 4.273438 -9.691406 4.640625 -9.921875 C 4.960938 -10.128906 5.320312 -10.242188 5.71875 -10.265625 C 6.65625 -10.328125 7.179688 -9.90625 7.296875 -9 C 7.335938 -8.625 7.320312 -8.257812 7.25 -7.90625 C 7.175781 -7.550781 7.09375 -7.203125 7 -6.859375 C 6.976562 -6.753906 6.957031 -6.65625 6.9375 -6.5625 C 6.78125 -5.945312 6.820312 -5.59375 7.0625 -5.5 C 7.3125 -5.414062 7.65625 -5.46875 8.09375 -5.65625 C 8.539062 -5.84375 8.992188 -6.070312 9.453125 -6.34375 C 9.765625 -6.5 10.035156 -6.632812 10.265625 -6.75 C 10.503906 -6.875 10.679688 -6.925781 10.796875 -6.90625 C 11.015625 -6.875 11.113281 -6.785156 11.09375 -6.640625 C 11.070312 -6.503906 10.992188 -6.367188 10.859375 -6.234375 Z M 10.859375 -6.234375 "/></g></g></g><g fill="#5e6697" fill-opacity="1"><g transform="translate(221.940308, 161.337457)"><g/></g></g><g fill="#5e6697" fill-opacity="1"><g transform="translate(236.169866, 161.337457)"><g><path d="M 6.5 -5.828125 L 5.421875 -5.84375 C 4.328125 -5.882812 3.125 -5.972656 1.8125 -6.109375 C 1.800781 -6.109375 1.785156 -6.128906 1.765625 -6.171875 C 1.734375 -6.171875 1.703125 -6.1875 1.671875 -6.21875 C 1.648438 -6.25 1.648438 -6.3125 1.671875 -6.40625 C 1.765625 -6.820312 1.910156 -7.035156 2.109375 -7.046875 C 3.160156 -7.191406 4.191406 -7.273438 5.203125 -7.296875 L 5.828125 -7.3125 L 9.953125 -7.3125 C 10.179688 -7.3125 10.40625 -7.296875 10.625 -7.265625 C 10.78125 -7.222656 10.800781 -6.992188 10.6875 -6.578125 C 10.5625 -6.171875 10.414062 -5.945312 10.25 -5.90625 C 10.164062 -5.882812 10.085938 -5.875 10.015625 -5.875 L 9.375 -5.875 C 8.457031 -5.84375 7.5 -5.828125 6.5 -5.828125 Z M 6.5 -5.828125 "/></g></g></g></svg>