<svg xmlns="http://www.w3.org/2000/svg" xmlns:xlink="http://www.w3.org/1999/xlink" viewBox="0 0 415.5 191.249993" preserveAspectRatio="xMidYMid meet" version="1.0"><defs><g/><clipPath id="ceb410027c"><path d="M 140 0 L 282.152344 0 L 282.152344 141.195312 L 140 141.195312 Z M 140 0 " clip-rule="nonzero"/></clipPath><clipPath id="72274b3f29"><path d="M 132.738281 87 L 223 87 L 223 141.195312 L 132.738281 141.195312 Z M 132.738281 87 " clip-rule="nonzero"/></clipPath><clipPath id="4418270d14"><path d="M 132.738281 46 L 169 46 L 169 134 L 132.738281 134 Z M 132.738281 46 " clip-rule="nonzero"/></clipPath><clipPath id="6ed26e840a"><path d="M 180 107 L 220 107 L 220 141.195312 L 180 141.195312 Z M 180 107 " clip-rule="nonzero"/></clipPath><clipPath id="5677a9db58"><path d="M 132.738281 94 L 165 94 L 165 137 L 132.738281 137 Z M 132.738281 94 " clip-rule="nonzero"/></clipPath><clipPath id="abdd755259"><path d="M 132.738281 58 L 167 58 L 167 119 L 132.738281 119 Z M 132.738281 58 " clip-rule="nonzero"/></clipPath><clipPath id="fc7587ebb1"><path d="M 239 68 L 282.152344 68 L 282.152344 126 L 239 126 Z M 239 68 " clip-rule="nonzero"/></clipPath><clipPath id="b36082fbe3"><path d="M 223 107 L 270 107 L 270 141.195312 L 223 141.195312 Z M 223 107 " clip-rule="nonzero"/></clipPath><clipPath id="77cca811a2"><path d="M 273 50 L 282.152344 50 L 282.152344 62 L 273 62 Z M 273 50 " clip-rule="nonzero"/></clipPath></defs><g clip-path="url(#ceb410027c)"><path stroke-linecap="butt" transform="matrix(0.995312, 0, 0, 0.9949, -0.466903, -118.482701)" fill="none" stroke-linejoin="miter" d="M 155.488841 188.361223 C 155.488841 188.361223 154.409563 172.208539 165.178801 147.461246 C 165.178801 147.461246 160.331859 139.38883 160.331859 120.008751 C 160.331859 120.008751 184.009271 117.86108 191.548523 123.240073 C 194.119169 122.14857 196.772232 121.343684 199.515562 120.833268 C 202.258892 120.318927 205.02577 120.110834 207.816196 120.205065 C 210.602697 120.295369 213.349952 120.691923 216.054036 121.382946 C 218.754195 122.077897 221.352313 123.059465 223.840541 124.319798 C 223.840541 124.319798 236.748714 118.940805 250.751864 123.240073 C 250.751864 123.240073 246.438674 138.309106 239.978701 145.839696 C 239.978701 145.839696 249.668661 169.519043 245.359395 188.899122 C 244.963006 190.591345 244.303665 192.177559 243.385296 193.649911 C 242.463004 195.12619 241.32878 196.410081 239.978701 197.509437 C 239.978701 197.509437 248.589382 199.661034 251.819369 194.278115 C 251.819369 194.278115 253.970077 192.130444 252.898647 184.588075 C 251.850766 177.261652 254.900219 179.099147 257.031304 186.138953 C 257.090173 186.339193 257.149043 186.539433 257.200064 186.739672 C 258.067411 186.405939 258.962231 186.241036 259.888449 186.241036 C 260.818591 186.241036 261.713411 186.405939 262.580758 186.739672 C 262.580758 186.739672 265.810745 157.681332 266.890024 188.899122 C 266.890024 188.899122 274.421426 181.36068 271.199289 189.970994 C 271.199289 189.970994 276.579984 215.801939 250.751864 237.329689 C 250.751864 237.329689 256.128634 250.251051 257.200064 256.701916 " stroke="#6b728e" stroke-width="1" stroke-opacity="1" stroke-miterlimit="10"/></g><g clip-path="url(#72274b3f29)"><path stroke-linecap="butt" transform="matrix(0.995312, 0, 0, 0.9949, -0.466903, -118.482701)" fill="none" stroke-linejoin="miter" d="M 139.880509 261.001184 C 139.880509 261.001184 139.880509 247.000097 143.110496 239.469507 C 143.110496 239.469507 154.951164 245.928225 176.481793 244.8485 C 176.481793 244.8485 189.389966 244.8485 198.008496 247.011876 C 206.630952 249.171326 208.769886 247.011876 208.769886 247.011876 C 208.769886 247.011876 214.150581 242.700829 203.389191 233.01079 C 200.912737 230.816003 198.236126 228.896056 195.363282 227.254875 C 192.490439 225.613693 189.476308 224.282687 186.328739 223.261856 C 183.177245 222.244951 179.959032 221.557854 176.666251 221.204489 C 173.377395 220.855051 170.084614 220.843272 166.791833 221.169153 C 166.791833 221.169153 152.788682 222.241025 149.57047 224.388696 " stroke="#6b728e" stroke-width="1" stroke-opacity="1" stroke-miterlimit="10"/></g><g clip-path="url(#4418270d14)"><path stroke-linecap="butt" transform="matrix(0.995312, 0, 0, 0.9949, -0.466903, -118.482701)" fill="none" stroke-linejoin="miter" d="M 143.110496 239.481286 C 143.110496 239.481286 126.968412 230.870971 138.80908 209.351074 C 138.80908 209.351074 151.721178 187.819397 156.030443 180.288807 " stroke="#6b728e" stroke-width="1" stroke-opacity="1" stroke-miterlimit="10"/></g><path stroke-linecap="butt" transform="matrix(0.995312, 0, 0, 0.9949, -0.466903, -118.482701)" fill="none" stroke-linejoin="miter" d="M 241.061904 215.801939 C 241.061904 215.801939 247.521877 231.950696 250.751864 237.329689 " stroke="#6b728e" stroke-width="1" stroke-opacity="1" stroke-miterlimit="10"/><path stroke-linecap="butt" transform="matrix(0.995312, 0, 0, 0.9949, -0.466903, -118.482701)" fill="none" stroke-linejoin="miter" d="M 258.279342 189.998478 C 258.279342 189.998478 259.358621 189.338865 258.279342 186.441276 " stroke="#6b728e" stroke-width="1" stroke-opacity="1" stroke-miterlimit="10"/><path stroke-linecap="butt" transform="matrix(0.995312, 0, 0, 0.9949, -0.466903, -118.482701)" fill="none" stroke-linejoin="miter" d="M 260.481071 189.900322 C 260.481071 189.900322 261.560349 189.228929 260.481071 186.339193 " stroke="#6b728e" stroke-width="1" stroke-opacity="1" stroke-miterlimit="10"/><g clip-path="url(#6ed26e840a)"><path stroke-linecap="butt" transform="matrix(0.995312, 0, 0, 0.9949, -0.466903, -118.482701)" fill="none" stroke-linejoin="miter" d="M 206.619178 247.820688 C 206.069727 246.882309 205.406461 246.026382 204.633305 245.260759 C 203.860149 244.495136 203.000651 243.839448 202.05481 243.297623 C 201.112894 242.755797 200.112109 242.347465 199.060303 242.064773 C 198.008496 241.782082 196.937067 241.640736 195.849939 241.640736 " stroke="#6b728e" stroke-width="1" stroke-opacity="1" stroke-miterlimit="10"/></g><path stroke-linecap="butt" transform="matrix(0.995312, 0, 0, 0.9949, -0.466903, -118.482701)" fill="none" stroke-linejoin="miter" d="M 210.100342 244.09073 C 210.100342 244.09073 207.690607 239.481286 200.159204 238.409414 " stroke="#6b728e" stroke-width="1" stroke-opacity="1" stroke-miterlimit="10"/><path fill="#50577a" d="M 138.128906 116.632812 C 138.128906 116.632812 143.585938 104.253906 146.800781 110.664062 C 148.917969 114.339844 150.191406 118.289062 150.621094 122.511719 C 150.621094 122.511719 140.179688 120.441406 138.128906 116.632812 Z M 138.128906 116.632812 " fill-opacity="1" fill-rule="nonzero"/><g clip-path="url(#5677a9db58)"><path stroke-linecap="butt" transform="matrix(0.995312, 0, 0, 0.9949, -0.466903, -118.482701)" fill="none" stroke-linejoin="miter" d="M 139.248641 236.320637 C 139.248641 236.320637 144.731376 223.878281 147.961363 230.321293 C 150.088523 234.015915 151.367959 237.985376 151.799671 242.229677 C 151.799671 242.229677 141.309082 240.148752 139.248641 236.320637 Z M 139.248641 236.320637 " stroke="#50577a" stroke-width="1" stroke-opacity="1" stroke-miterlimit="10"/></g><path fill="#50577a" d="M 148.402344 72.628906 C 148.402344 72.628906 156.433594 87.125 150.015625 94.613281 C 150.015625 94.613281 134.824219 119.199219 138.128906 90.308594 C 138.128906 90.308594 146.839844 75.265625 148.402344 72.628906 Z M 148.402344 72.628906 " fill-opacity="1" fill-rule="nonzero"/><g clip-path="url(#abdd755259)"><path stroke-linecap="butt" transform="matrix(0.995312, 0, 0, 0.9949, -0.466903, -118.482701)" fill="none" stroke-linejoin="miter" d="M 149.57047 192.091181 C 149.57047 192.091181 157.639549 206.661577 151.19135 214.188241 C 151.19135 214.188241 135.928387 238.900198 139.248641 209.861489 C 139.248641 209.861489 148.00061 194.741415 149.57047 192.091181 Z M 149.57047 192.091181 " stroke="#50577a" stroke-width="1" stroke-opacity="1" stroke-miterlimit="10"/></g><path stroke-linecap="butt" transform="matrix(0.995312, 0, 0, 0.9949, -0.466903, -118.482701)" fill-opacity="1" fill="#50577a" fill-rule="nonzero" stroke-linejoin="miter" d="M 169.480218 140.998602 C 169.480218 140.998602 158.718828 119.470852 184.550873 127.001442 C 184.550873 127.001442 174.860912 138.850931 169.480218 140.998602 Z M 169.480218 140.998602 " stroke="#50577a" stroke-width="1" stroke-opacity="1" stroke-miterlimit="10"/><path stroke-linecap="butt" transform="matrix(0.995312, 0, 0, 0.9949, -0.466903, -118.482701)" fill-opacity="1" fill="#50577a" fill-rule="nonzero" stroke-linejoin="miter" d="M 230.830342 128.081167 C 230.830342 128.081167 257.741665 118.39898 240.520302 137.771206 C 240.520302 137.771206 233.000673 131.308562 230.830342 128.081167 Z M 230.830342 128.081167 " stroke="#50577a" stroke-width="1" stroke-opacity="1" stroke-miterlimit="10"/><path fill="#50577a" d="M 255.726562 111.339844 C 255.726562 111.339844 251.246094 94.085938 256.601562 94.085938 C 256.601562 94.085938 260.882812 96.226562 265.171875 84.445312 C 265.171875 84.445312 266.84375 80.167969 269.222656 84.445312 C 269.261719 84.476562 264.484375 105.023438 255.726562 111.339844 Z M 255.726562 111.339844 " fill-opacity="1" fill-rule="nonzero"/><g clip-path="url(#fc7587ebb1)"><path stroke-linecap="butt" transform="matrix(0.995312, 0, 0, 0.9949, -0.466903, -118.482701)" fill="none" stroke-linejoin="miter" d="M 257.400221 231.000538 C 257.400221 231.000538 252.898647 213.658194 258.279342 213.658194 C 258.279342 213.658194 262.580758 215.809791 266.890024 203.968155 C 266.890024 203.968155 268.569774 199.668887 270.959885 203.968155 C 270.999132 203.999565 266.199285 224.651756 257.400221 231.000538 Z M 257.400221 231.000538 " stroke="#50577a" stroke-width="1" stroke-opacity="1" stroke-miterlimit="10"/></g><path fill="#50577a" d="M 250.5625 121.289062 C 250.5625 121.289062 218.324219 129.914062 255.140625 135.027344 Z M 250.5625 121.289062 " fill-opacity="1" fill-rule="nonzero"/><g clip-path="url(#b36082fbe3)"><path stroke-linecap="butt" transform="matrix(0.995312, 0, 0, 0.9949, -0.466903, -118.482701)" fill="none" stroke-linejoin="miter" d="M 252.211834 241.000753 C 252.211834 241.000753 219.8217 249.669962 256.811523 254.809453 Z M 252.211834 241.000753 " stroke="#50577a" stroke-width="1" stroke-opacity="1" stroke-miterlimit="10"/></g><path stroke-linecap="butt" transform="matrix(0.995312, 0, 0, 0.9949, -0.466903, -118.482701)" fill-opacity="1" fill="#50577a" fill-rule="nonzero" stroke-linejoin="miter" d="M 176.999846 221.279088 C 176.999846 221.279088 173.208635 228.719374 182.898595 229.799099 C 192.588555 230.878824 195.041461 227.109603 195.041461 227.109603 C 195.041461 227.109603 184.060291 221.369393 176.999846 221.279088 Z M 176.999846 221.279088 " stroke="#50577a" stroke-width="1" stroke-opacity="1" stroke-miterlimit="10"/><path stroke-linecap="butt" transform="matrix(0.995312, 0, 0, 0.9949, -0.466903, -118.482701)" fill="none" stroke-linejoin="miter" d="M 162.490416 184.588075 C 162.490416 184.588075 172.168603 179.209082 201.230634 180.288807 " stroke="#6b728e" stroke-width="1" stroke-opacity="1" stroke-miterlimit="10"/><path stroke-linecap="butt" transform="matrix(0.995312, 0, 0, 0.9949, -0.466903, -118.482701)" fill="none" stroke-linejoin="miter" d="M 165.720403 196.429712 C 175.214131 190.842627 185.257309 186.535506 195.849939 183.50835 " stroke="#6b728e" stroke-width="1" stroke-opacity="1" stroke-miterlimit="10"/><path stroke-linecap="butt" transform="matrix(0.995312, 0, 0, 0.9949, -0.466903, -118.482701)" fill="none" stroke-linejoin="miter" d="M 175.398589 203.999565 C 175.398589 203.999565 181.858563 193.241579 203.400965 184.631264 " stroke="#6b728e" stroke-width="1" stroke-opacity="1" stroke-miterlimit="10"/><path stroke-linecap="butt" transform="matrix(0.995312, 0, 0, 0.9949, -0.466903, -118.482701)" fill="none" stroke-linejoin="miter" d="M 235.681209 181.36068 C 235.681209 181.36068 252.898647 169.519043 257.200064 170.598768 " stroke="#6b728e" stroke-width="1" stroke-opacity="1" stroke-miterlimit="10"/><path stroke-linecap="butt" transform="matrix(0.995312, 0, 0, 0.9949, -0.466903, -118.482701)" fill="none" stroke-linejoin="miter" d="M 237.831917 183.50835 C 237.831917 183.50835 245.359395 178.129358 252.898647 178.129358 " stroke="#6b728e" stroke-width="1" stroke-opacity="1" stroke-miterlimit="10"/><path stroke-linecap="butt" transform="matrix(0.995312, 0, 0, 0.9949, -0.466903, -118.482701)" fill="none" stroke-linejoin="miter" d="M 238.911196 185.671726 C 238.911196 185.671726 242.129409 184.588075 250.751864 186.739672 " stroke="#6b728e" stroke-width="1" stroke-opacity="1" stroke-miterlimit="10"/><path stroke-linecap="butt" transform="matrix(0.995312, 0, 0, 0.9949, -0.466903, -118.482701)" fill-opacity="1" fill="#50577a" fill-rule="nonzero" stroke-linejoin="miter" d="M 187.780859 167.371372 C 187.780859 167.371372 187.780859 159.840782 194.71964 157.681332 C 201.658421 155.521883 205.139585 157.681332 205.139585 157.681332 C 205.139585 157.681332 210.920594 160.908728 210.920594 166.291647 C 210.893121 166.85703 210.822478 167.414561 210.708663 167.972092 C 210.590923 168.525696 210.430013 169.067522 210.225931 169.593642 C 210.017925 170.123689 209.774596 170.630178 209.484172 171.120962 C 209.197673 171.60782 208.871927 172.067193 208.506934 172.50301 C 208.141942 172.938826 207.749477 173.339306 207.317766 173.712302 C 206.889979 174.081371 206.434719 174.415104 205.948063 174.709575 C 205.465331 175.004045 204.962976 175.259253 204.437073 175.471271 C 203.91117 175.687216 203.373493 175.856046 202.820117 175.981687 C 200.571293 176.236894 198.353866 176.087696 196.159986 175.530166 C 193.966107 174.972635 191.944913 174.046035 190.088553 172.750365 C 189.378192 172.031857 188.824816 171.20734 188.424502 170.28074 C 188.028112 169.350213 187.812256 168.380424 187.780859 167.371372 Z M 187.780859 167.371372 " stroke="#50577a" stroke-width="1" stroke-opacity="1" stroke-miterlimit="10"/><path stroke-linecap="butt" transform="matrix(0.995312, 0, 0, 0.9949, -0.466903, -118.482701)" fill-opacity="1" fill="#50577a" fill-rule="nonzero" stroke-linejoin="miter" d="M 225.061107 167.198616 C 225.061107 167.198616 225.061107 160.080285 231.309149 158.050402 C 237.561116 156.020519 240.689062 158.050402 240.689062 158.050402 C 240.689062 158.050402 245.900997 161.050074 245.900997 166.181712 C 245.865675 167.233952 245.665518 168.254783 245.300526 169.244204 C 244.935533 170.229698 244.425329 171.136667 243.769912 171.961184 C 243.114496 172.785701 242.345264 173.484578 241.462218 174.06174 C 240.579172 174.638902 239.629407 175.059013 238.608998 175.329926 C 236.576029 175.573354 234.566609 175.428082 232.588585 174.901962 C 230.606637 174.375841 228.793449 173.500283 227.149021 172.279212 C 226.501453 171.592115 225.995174 170.810786 225.634106 169.935228 C 225.273038 169.059669 225.084655 168.144848 225.061107 167.198616 Z M 225.061107 167.198616 " stroke="#50577a" stroke-width="1" stroke-opacity="1" stroke-miterlimit="10"/><path stroke-linecap="butt" transform="matrix(0.995312, 0, 0, 0.9949, -0.466903, -118.482701)" fill="none" stroke-linejoin="miter" d="M 210.920594 166.291647 C 210.920594 166.291647 219.531275 161.988453 225.991249 167.371372 " stroke="#50577a" stroke-width="1" stroke-opacity="1" stroke-miterlimit="10"/><path fill="#939ab5" d="M 235.710938 38.929688 C 235.710938 38.929688 244.179688 40.363281 243.117188 47.496094 C 243.117188 47.496094 236.765625 43.21875 235.710938 38.929688 Z M 235.710938 38.929688 " fill-opacity="0.8" fill-rule="nonzero"/><path fill="#939ab5" d="M 200.019531 38.183594 C 200.019531 38.183594 210.082031 39.734375 208.816406 47.496094 C 208.816406 47.496094 201.273438 42.839844 200.019531 38.183594 Z M 200.019531 38.183594 " fill-opacity="0.8" fill-rule="nonzero"/><path stroke-linecap="butt" transform="matrix(0.995312, 0, 0, 0.9949, -0.466903, -118.482701)" fill-opacity="1" fill="#50577a" fill-rule="nonzero" stroke-linejoin="miter" d="M 217.380567 172.750365 L 223.840541 172.750365 C 223.840541 172.750365 225.991249 173.83009 220.610554 178.129358 C 220.610554 178.129358 216.301289 174.898036 217.380567 172.750365 Z M 217.380567 172.750365 " stroke="#50577a" stroke-width="1" stroke-opacity="1" stroke-miterlimit="10"/><path stroke-linecap="butt" transform="matrix(0.995312, 0, 0, 0.9949, -0.466903, -118.482701)" fill="none" stroke-linejoin="miter" d="M 220.610554 178.129358 C 219.531275 187.819397 210.920594 183.50835 210.920594 183.50835 " stroke="#6b728e" stroke-width="1" stroke-opacity="1" stroke-miterlimit="10"/><path stroke-linecap="butt" transform="matrix(0.995312, 0, 0, 0.9949, -0.466903, -118.482701)" fill="none" stroke-linejoin="miter" d="M 230.300514 182.440404 C 230.300514 182.440404 223.840541 188.899122 220.610554 178.129358 " stroke="#6b728e" stroke-width="1" stroke-opacity="1" stroke-miterlimit="10"/><path fill="#ffff50" d="M 270.925781 31.746094 C 270.925781 31.746094 270.925781 43.019531 262.296875 43.019531 C 262.296875 43.019531 270.257812 44.351562 270.257812 51.644531 C 270.257812 51.644531 272.914062 41.695312 278.21875 43.019531 C 278.21875 43.019531 269.589844 42.363281 270.925781 31.746094 Z M 270.925781 31.746094 " fill-opacity="1" fill-rule="nonzero"/><g clip-path="url(#77cca811a2)"><path fill="#ffff50" d="M 278.121094 50.648438 C 278.121094 50.648438 278.121094 56.621094 273.523438 56.621094 C 273.523438 56.621094 277.761719 57.324219 277.761719 61.214844 C 277.761719 61.214844 279.175781 55.914062 282.003906 56.621094 C 282.003906 56.621094 277.414062 56.3125 278.121094 50.648438 Z M 278.121094 50.648438 " fill-opacity="1" fill-rule="nonzero"/></g><g fill="#5e6697" fill-opacity="1"><g transform="translate(99.237994, 160.018305)"><g><path d="M 6.484375 -5.796875 L 5.40625 -5.828125 C 4.3125 -5.867188 3.113281 -5.957031 1.8125 -6.09375 C 1.789062 -6.09375 1.773438 -6.113281 1.765625 -6.15625 C 1.722656 -6.15625 1.691406 -6.171875 1.671875 -6.203125 C 1.648438 -6.234375 1.648438 -6.296875 1.671875 -6.390625 C 1.765625 -6.796875 1.910156 -7.007812 2.109375 -7.03125 C 3.148438 -7.175781 4.175781 -7.253906 5.1875 -7.265625 L 5.8125 -7.296875 L 9.921875 -7.296875 C 10.160156 -7.296875 10.382812 -7.28125 10.59375 -7.25 C 10.75 -7.195312 10.769531 -6.96875 10.65625 -6.5625 C 10.53125 -6.15625 10.382812 -5.929688 10.21875 -5.890625 C 10.132812 -5.867188 10.054688 -5.859375 9.984375 -5.859375 L 9.34375 -5.859375 C 8.4375 -5.816406 7.484375 -5.796875 6.484375 -5.796875 Z M 6.484375 -5.796875 "/></g></g></g><g fill="#5e6697" fill-opacity="1"><g transform="translate(115.252625, 160.018305)"><g/></g></g><g fill="#5e6697" fill-opacity="1"><g transform="translate(129.439261, 160.018305)"><g><path d="M 12.28125 -32.34375 C 12.457031 -32.34375 12.613281 -32.28125 12.75 -32.15625 C 12.882812 -32.039062 12.960938 -31.910156 12.984375 -31.765625 C 13.003906 -31.460938 12.992188 -31.175781 12.953125 -30.90625 C 12.941406 -30.613281 12.90625 -30.335938 12.84375 -30.078125 C 12.820312 -29.960938 12.8125 -29.851562 12.8125 -29.75 C 12.101562 -26.5625 11.222656 -23.441406 10.171875 -20.390625 C 10.066406 -20.046875 10.015625 -19.691406 10.015625 -19.328125 C 10.054688 -18.898438 9.976562 -18.503906 9.78125 -18.140625 C 9.332031 -17.472656 8.972656 -16.773438 8.703125 -16.046875 C 6.890625 -10.898438 4.945312 -5.8125 2.875 -0.78125 C 1.132812 3.519531 -0.835938 7.726562 -3.046875 11.84375 C -3.648438 12.914062 -4.296875 13.976562 -4.984375 15.03125 C -5.316406 15.488281 -5.6875 15.914062 -6.09375 16.3125 C -6.46875 16.613281 -6.898438 16.703125 -7.390625 16.578125 C -7.898438 16.453125 -8.144531 16.125 -8.125 15.59375 C -8.0625 14.976562 -7.925781 14.375 -7.71875 13.78125 C -6.4375 10.257812 -5.023438 6.796875 -3.484375 3.390625 C -0.640625 -3.066406 2.65625 -9.269531 6.40625 -15.21875 C 7.09375 -16.363281 7.625 -17.550781 8 -18.78125 C 8.664062 -20.78125 9.289062 -22.785156 9.875 -24.796875 C 10.457031 -26.816406 10.960938 -28.851562 11.390625 -30.90625 C 11.453125 -31.226562 11.535156 -31.5625 11.640625 -31.90625 C 11.753906 -32.195312 11.96875 -32.34375 12.28125 -32.34375 Z M -5.34375 12.84375 C -3.519531 9.507812 -1.859375 6.113281 -0.359375 2.65625 C 1.128906 -0.789062 2.503906 -4.304688 3.765625 -7.890625 C 3.742188 -7.867188 3.722656 -7.835938 3.703125 -7.796875 C 3.640625 -7.753906 3.582031 -7.703125 3.53125 -7.640625 C 3.394531 -7.390625 3.257812 -7.144531 3.125 -6.90625 C 1.476562 -3.851562 -0.0390625 -0.742188 -1.4375 2.421875 C -2.84375 5.585938 -4.179688 8.773438 -5.453125 11.984375 C -5.472656 12.023438 -5.484375 12.054688 -5.484375 12.078125 C -5.535156 12.171875 -5.5625 12.28125 -5.5625 12.40625 C -5.5625 12.539062 -5.488281 12.6875 -5.34375 12.84375 Z M 70.84375 -33.078125 C 70.84375 -32.992188 70.800781 -32.910156 70.71875 -32.828125 C 70.644531 -32.753906 70.5625 -32.695312 70.46875 -32.65625 C 70.375 -32.613281 70.285156 -32.617188 70.203125 -32.671875 C 69.691406 -32.972656 69.148438 -33.175781 68.578125 -33.28125 C 68.015625 -33.394531 67.445312 -33.484375 66.875 -33.546875 C 66.445312 -33.566406 66.03125 -33.613281 65.625 -33.6875 C 64.09375 -33.925781 62.5625 -34.125 61.03125 -34.28125 C 56.007812 -34.6875 50.972656 -34.910156 45.921875 -34.953125 C 41.046875 -35.015625 36.171875 -34.90625 31.296875 -34.625 C 25.804688 -34.351562 20.320312 -33.945312 14.84375 -33.40625 C 9.800781 -32.945312 4.773438 -32.398438 -0.234375 -31.765625 C -0.535156 -31.710938 -0.859375 -31.671875 -1.203125 -31.640625 C -3.109375 -31.378906 -5.015625 -31.101562 -6.921875 -30.8125 C -8.835938 -30.519531 -10.75 -30.160156 -12.65625 -29.734375 C -12.800781 -29.679688 -12.953125 -29.640625 -13.109375 -29.609375 C -13.847656 -29.429688 -14.59375 -29.234375 -15.34375 -29.015625 C -16.09375 -28.804688 -16.8125 -28.523438 -17.5 -28.171875 C -17.59375 -28.117188 -17.695312 -28.078125 -17.8125 -28.046875 C -17.96875 -28.023438 -18.113281 -28.03125 -18.25 -28.0625 C -18.382812 -28.09375 -18.492188 -28.175781 -18.578125 -28.3125 C -18.648438 -28.457031 -18.65625 -28.59375 -18.59375 -28.71875 C -18.539062 -28.84375 -18.445312 -28.941406 -18.3125 -29.015625 C -17.863281 -29.253906 -17.394531 -29.460938 -16.90625 -29.640625 C -15.6875 -30.046875 -14.457031 -30.390625 -13.21875 -30.671875 C -11.976562 -30.960938 -10.726562 -31.210938 -9.46875 -31.421875 C -5.851562 -32.035156 -2.238281 -32.570312 1.375 -33.03125 C 5 -33.488281 8.640625 -33.894531 12.296875 -34.25 C 17.429688 -34.78125 22.570312 -35.203125 27.71875 -35.515625 C 32.195312 -35.804688 36.679688 -35.972656 41.171875 -36.015625 C 44.460938 -36.046875 47.75 -36.015625 51.03125 -35.921875 C 54.320312 -35.828125 57.609375 -35.628906 60.890625 -35.328125 C 63.890625 -35.023438 66.863281 -34.566406 69.8125 -33.953125 C 70.09375 -33.890625 70.347656 -33.796875 70.578125 -33.671875 C 70.773438 -33.523438 70.863281 -33.328125 70.84375 -33.078125 Z M 70.84375 -33.078125 "/></g></g></g><g fill="#5e6697" fill-opacity="1"><g transform="translate(143.319016, 160.018305)"><g><path d="M 6.40625 -8.1875 C 6.320312 -7.570312 6.03125 -7.171875 5.53125 -6.984375 C 5.039062 -6.804688 4.878906 -7.050781 5.046875 -7.71875 C 5.222656 -8.394531 4.921875 -8.566406 4.140625 -8.234375 C 3.359375 -7.898438 2.710938 -7.484375 2.203125 -6.984375 C 1.421875 -6.179688 0.726562 -5.316406 0.125 -4.390625 C 0.0625 -4.304688 0.0078125 -4.238281 -0.03125 -4.1875 C -0.207031 -3.925781 -0.382812 -3.679688 -0.5625 -3.453125 C -0.675781 -3.296875 -0.8125 -3.195312 -0.96875 -3.15625 C -1.125 -3.113281 -1.28125 -3.109375 -1.4375 -3.140625 C -1.59375 -3.148438 -1.707031 -3.203125 -1.78125 -3.296875 C -1.863281 -3.398438 -1.875 -3.519531 -1.8125 -3.65625 C -1.71875 -3.894531 -1.601562 -4.140625 -1.46875 -4.390625 C -0.664062 -5.878906 0.144531 -7.367188 0.96875 -8.859375 C 0.988281 -8.878906 1 -8.894531 1 -8.90625 C 1.113281 -9.144531 1.253906 -9.359375 1.421875 -9.546875 C 1.597656 -9.742188 1.800781 -9.820312 2.03125 -9.78125 C 2.257812 -9.75 2.414062 -9.613281 2.5 -9.375 C 2.59375 -9.0625 2.675781 -8.882812 2.75 -8.84375 C 2.820312 -8.8125 2.984375 -8.84375 3.234375 -8.9375 C 3.765625 -9.132812 4.28125 -9.269531 4.78125 -9.34375 C 5.289062 -9.425781 5.707031 -9.40625 6.03125 -9.28125 C 6.363281 -9.164062 6.488281 -8.800781 6.40625 -8.1875 Z M 6.40625 -8.1875 "/></g></g></g><g fill="#5e6697" fill-opacity="1"><g transform="translate(154.089847, 160.018305)"><g><path d="M 0.328125 -2.359375 C -0.515625 -2.359375 -0.9375 -2.800781 -0.9375 -3.6875 C -0.9375 -4.757812 -0.238281 -6.65625 1.15625 -9.375 C 1.207031 -9.488281 1.304688 -9.546875 1.453125 -9.546875 C 2.015625 -9.546875 2.296875 -9.328125 2.296875 -8.890625 C 2.296875 -8.722656 2.242188 -8.523438 2.140625 -8.296875 C 2.109375 -8.234375 1.644531 -7.0625 0.75 -4.78125 C 0.601562 -4.40625 0.53125 -4.128906 0.53125 -3.953125 C 0.53125 -3.753906 0.617188 -3.65625 0.796875 -3.65625 C 1.453125 -3.65625 3.15625 -5.269531 5.90625 -8.5 C 6.257812 -8.9375 6.613281 -9.15625 6.96875 -9.15625 C 7.46875 -9.15625 7.71875 -8.96875 7.71875 -8.59375 C 7.71875 -8.445312 7.566406 -7.910156 7.265625 -6.984375 C 6.835938 -5.710938 6.625 -4.976562 6.625 -4.78125 C 6.625 -4.488281 6.71875 -4.34375 6.90625 -4.34375 C 7.394531 -4.34375 8.828125 -5.210938 11.203125 -6.953125 C 11.328125 -7.066406 11.441406 -7.125 11.546875 -7.125 C 11.765625 -7.125 11.875 -6.9375 11.875 -6.5625 C 11.875 -6.46875 11.84375 -6.390625 11.78125 -6.328125 C 10.53125 -5.242188 9.460938 -4.425781 8.578125 -3.875 C 7.773438 -3.351562 7.0625 -3.09375 6.4375 -3.09375 L 6.265625 -3.09375 C 5.347656 -3.289062 4.890625 -4.007812 4.890625 -5.25 C 3.910156 -4.382812 3.097656 -3.6875 2.453125 -3.15625 C 1.804688 -2.625 1.097656 -2.359375 0.328125 -2.359375 Z M 0.328125 -2.359375 "/></g></g></g><g fill="#5e6697" fill-opacity="1"><g transform="translate(169.157118, 160.018305)"><g><path d="M 2.125 -3.15625 L 2.078125 -3.15625 C 0.785156 -3.175781 -0.0625 -3.460938 -0.46875 -4.015625 C -0.875 -4.578125 -0.851562 -5.320312 -0.40625 -6.25 C -0.0390625 -6.945312 0.425781 -7.5625 1 -8.09375 C 1.195312 -8.269531 1.394531 -8.410156 1.59375 -8.515625 C 1.800781 -8.617188 2.035156 -8.671875 2.296875 -8.671875 C 2.441406 -8.703125 2.613281 -8.675781 2.8125 -8.59375 C 2.875 -8.570312 2.9375 -8.550781 3 -8.53125 C 3.15625 -8.550781 3.300781 -8.597656 3.4375 -8.671875 C 3.476562 -8.703125 3.53125 -8.722656 3.59375 -8.734375 C 3.882812 -8.847656 4.195312 -8.898438 4.53125 -8.890625 C 4.65625 -8.890625 4.789062 -8.890625 4.9375 -8.890625 C 5.457031 -8.804688 5.851562 -8.582031 6.125 -8.21875 C 6.394531 -7.863281 6.488281 -7.425781 6.40625 -6.90625 C 6.363281 -6.59375 6.265625 -6.300781 6.109375 -6.03125 C 5.085938 -4.195312 3.785156 -3.238281 2.203125 -3.15625 Z M 4.234375 -7.9375 C 3.523438 -7.96875 2.894531 -7.765625 2.34375 -7.328125 C 1.800781 -6.898438 1.394531 -6.40625 1.125 -5.84375 C 0.863281 -5.28125 0.789062 -4.816406 0.90625 -4.453125 C 1.03125 -4.097656 1.40625 -4 2.03125 -4.15625 C 2.726562 -4.375 3.347656 -4.773438 3.890625 -5.359375 C 4.429688 -5.953125 4.757812 -6.507812 4.875 -7.03125 C 5 -7.5625 4.785156 -7.863281 4.234375 -7.9375 Z M 4.234375 -7.9375 "/></g></g></g><g fill="#5e6697" fill-opacity="1"><g transform="translate(180.341587, 160.018305)"><g><path d="M 10.5625 -6.65625 C 10.707031 -6.476562 10.53125 -6.15625 10.03125 -5.6875 C 9.53125 -5.21875 9 -4.820312 8.4375 -4.5 C 7.882812 -4.175781 7.238281 -3.851562 6.5 -3.53125 C 6.007812 -3.320312 5.488281 -3.25 4.9375 -3.3125 C 4.382812 -3.382812 4.109375 -3.71875 4.109375 -4.3125 C 4.109375 -4.914062 4.25 -5.507812 4.53125 -6.09375 C 4.800781 -6.695312 4.859375 -7.007812 4.703125 -7.03125 C 4.546875 -7.050781 4.222656 -6.90625 3.734375 -6.59375 C 2.460938 -5.757812 1.28125 -4.800781 0.1875 -3.71875 C -0.101562 -3.363281 -0.476562 -3.171875 -0.9375 -3.140625 C -1.164062 -3.140625 -1.34375 -3.210938 -1.46875 -3.359375 C -1.601562 -3.503906 -1.617188 -3.660156 -1.515625 -3.828125 C -0.734375 -5.273438 0.0546875 -6.707031 0.859375 -8.125 C 1.035156 -8.414062 1.300781 -8.597656 1.65625 -8.671875 C 1.800781 -8.703125 1.9375 -8.65625 2.0625 -8.53125 C 2.195312 -8.414062 2.265625 -8.28125 2.265625 -8.125 C 2.242188 -7.976562 2.1875 -7.8125 2.09375 -7.625 C 2.050781 -7.507812 2.007812 -7.394531 1.96875 -7.28125 C 1.925781 -7.175781 1.910156 -7.085938 1.921875 -7.015625 C 1.941406 -6.941406 2 -6.921875 2.09375 -6.953125 C 2.226562 -7.023438 2.363281 -7.097656 2.5 -7.171875 C 2.832031 -7.367188 3.15625 -7.554688 3.46875 -7.734375 C 3.75 -7.898438 4.039062 -8.046875 4.34375 -8.171875 C 4.644531 -8.296875 4.957031 -8.378906 5.28125 -8.421875 C 5.8125 -8.453125 6.1875 -8.328125 6.40625 -8.046875 C 6.632812 -7.773438 6.664062 -7.394531 6.5 -6.90625 C 6.320312 -6.46875 6.132812 -6.03125 5.9375 -5.59375 C 5.695312 -5.1875 5.65625 -4.875 5.8125 -4.65625 C 5.976562 -4.445312 6.722656 -4.691406 8.046875 -5.390625 L 9.046875 -5.984375 C 9.992188 -6.585938 10.5 -6.8125 10.5625 -6.65625 Z M 10.5625 -6.65625 "/></g></g></g><g fill="#5e6697" fill-opacity="1"><g transform="translate(194.221339, 160.018305)"><g><path d="M 11.78125 -7.15625 C 11.851562 -7.164062 11.929688 -7.160156 12.015625 -7.140625 C 12.109375 -7.128906 12.175781 -7.09375 12.21875 -7.03125 C 12.269531 -6.9375 12.265625 -6.835938 12.203125 -6.734375 C 12.148438 -6.640625 12.066406 -6.566406 11.953125 -6.515625 C 11.148438 -6.117188 10.347656 -5.710938 9.546875 -5.296875 C 8.585938 -4.804688 7.628906 -4.316406 6.671875 -3.828125 C 6.523438 -3.773438 6.390625 -3.707031 6.265625 -3.625 C 6.046875 -3.507812 5.832031 -3.40625 5.625 -3.3125 C 5.132812 -3.070312 4.804688 -2.695312 4.640625 -2.1875 C 4.210938 -0.976562 3.765625 0.222656 3.296875 1.421875 C 2.691406 3.003906 1.9375 4.519531 1.03125 5.96875 C 0.519531 6.789062 -0.09375 7.523438 -0.8125 8.171875 C -1.675781 8.972656 -2.664062 9.484375 -3.78125 9.703125 C -5.613281 10.078125 -7.382812 9.957031 -9.09375 9.34375 C -9.800781 9.09375 -10.410156 8.691406 -10.921875 8.140625 C -11.597656 7.398438 -11.628906 6.609375 -11.015625 5.765625 C -10.734375 5.410156 -10.425781 5.078125 -10.09375 4.765625 C -9.332031 4.078125 -8.507812 3.460938 -7.625 2.921875 C -4.46875 0.898438 -1.226562 -0.957031 2.09375 -2.65625 C 2.113281 -2.65625 2.125 -2.65625 2.125 -2.65625 C 2.46875 -2.832031 2.8125 -3.019531 3.15625 -3.21875 C 3.207031 -3.257812 3.28125 -3.351562 3.375 -3.5 C 3.46875 -3.644531 3.539062 -3.789062 3.59375 -3.9375 C 3.644531 -4.082031 3.628906 -4.1875 3.546875 -4.25 C 3.472656 -4.320312 3.289062 -4.289062 3 -4.15625 C 2.882812 -4.113281 2.78125 -4.066406 2.6875 -4.015625 C 2.425781 -3.890625 2.164062 -3.78125 1.90625 -3.6875 C 0.382812 -3.320312 -0.375 -3.90625 -0.375 -5.4375 C -0.332031 -6.363281 -0.0546875 -7.195312 0.453125 -7.9375 C 0.972656 -8.6875 1.640625 -9.269531 2.453125 -9.6875 C 3.265625 -10.113281 4.140625 -10.28125 5.078125 -10.1875 C 5.179688 -10.1875 5.28125 -10.171875 5.375 -10.140625 C 5.632812 -10.109375 5.894531 -10.09375 6.15625 -10.09375 C 6.414062 -10.09375 6.6875 -10.148438 6.96875 -10.265625 C 7.257812 -10.378906 7.476562 -10.34375 7.625 -10.15625 C 7.769531 -9.976562 7.796875 -9.742188 7.703125 -9.453125 C 7.441406 -8.898438 7.1875 -8.335938 6.9375 -7.765625 C 6.757812 -7.421875 6.59375 -7.0625 6.4375 -6.6875 C 6.257812 -6.289062 6.082031 -5.890625 5.90625 -5.484375 C 5.664062 -4.953125 5.628906 -4.671875 5.796875 -4.640625 C 5.972656 -4.617188 6.265625 -4.710938 6.671875 -4.921875 C 6.722656 -4.941406 6.78125 -4.960938 6.84375 -4.984375 C 7.59375 -5.335938 8.34375 -5.6875 9.09375 -6.03125 C 9.632812 -6.269531 10.164062 -6.515625 10.6875 -6.765625 C 11.039062 -6.921875 11.40625 -7.050781 11.78125 -7.15625 Z M 2.296875 0.015625 C 2.566406 -0.765625 2.679688 -1.273438 2.640625 -1.515625 C 2.609375 -1.765625 2.441406 -1.832031 2.140625 -1.71875 C 1.835938 -1.601562 1.441406 -1.390625 0.953125 -1.078125 C 0.640625 -0.878906 0.296875 -0.6875 -0.078125 -0.5 C -2.328125 0.71875 -4.519531 2.023438 -6.65625 3.421875 C -7.601562 3.972656 -8.445312 4.640625 -9.1875 5.421875 C -9.96875 6.253906 -9.9375 6.992188 -9.09375 7.640625 C -8.601562 8.035156 -8.054688 8.3125 -7.453125 8.46875 C -6.859375 8.625 -6.203125 8.703125 -5.484375 8.703125 C -4.640625 8.765625 -3.859375 8.609375 -3.140625 8.234375 C -2.421875 7.859375 -1.753906 7.296875 -1.140625 6.546875 C -0.773438 6.054688 -0.421875 5.550781 -0.078125 5.03125 C 0.898438 3.425781 1.691406 1.753906 2.296875 0.015625 Z M 1.421875 -4.703125 C 1.648438 -4.609375 1.984375 -4.691406 2.421875 -4.953125 C 2.859375 -5.222656 3.304688 -5.59375 3.765625 -6.0625 C 4.234375 -6.53125 4.601562 -7.007812 4.875 -7.5 C 5.144531 -7.988281 5.210938 -8.398438 5.078125 -8.734375 C 5.046875 -8.835938 4.988281 -8.925781 4.90625 -9 C 4.769531 -9.175781 4.613281 -9.257812 4.4375 -9.25 C 4.257812 -9.238281 4.078125 -9.207031 3.890625 -9.15625 C 3.234375 -8.894531 2.65625 -8.453125 2.15625 -7.828125 C 1.664062 -7.203125 1.335938 -6.582031 1.171875 -5.96875 C 1.003906 -5.351562 1.085938 -4.929688 1.421875 -4.703125 Z M 1.421875 -4.703125 "/></g></g></g><g fill="#5e6697" fill-opacity="1"><g transform="translate(209.715592, 160.018305)"><g/></g></g><g fill="#5e6697" fill-opacity="1"><g transform="translate(223.902232, 160.018305)"><g><path d="M 12.28125 -32.34375 C 12.457031 -32.34375 12.613281 -32.28125 12.75 -32.15625 C 12.882812 -32.039062 12.960938 -31.910156 12.984375 -31.765625 C 13.003906 -31.460938 12.992188 -31.175781 12.953125 -30.90625 C 12.941406 -30.613281 12.90625 -30.335938 12.84375 -30.078125 C 12.820312 -29.960938 12.8125 -29.851562 12.8125 -29.75 C 12.101562 -26.5625 11.222656 -23.441406 10.171875 -20.390625 C 10.066406 -20.046875 10.015625 -19.691406 10.015625 -19.328125 C 10.054688 -18.898438 9.976562 -18.503906 9.78125 -18.140625 C 9.332031 -17.472656 8.972656 -16.773438 8.703125 -16.046875 C 6.890625 -10.898438 4.945312 -5.8125 2.875 -0.78125 C 1.132812 3.519531 -0.835938 7.726562 -3.046875 11.84375 C -3.648438 12.914062 -4.296875 13.976562 -4.984375 15.03125 C -5.316406 15.488281 -5.6875 15.914062 -6.09375 16.3125 C -6.46875 16.613281 -6.898438 16.703125 -7.390625 16.578125 C -7.898438 16.453125 -8.144531 16.125 -8.125 15.59375 C -8.0625 14.976562 -7.925781 14.375 -7.71875 13.78125 C -6.4375 10.257812 -5.023438 6.796875 -3.484375 3.390625 C -0.640625 -3.066406 2.65625 -9.269531 6.40625 -15.21875 C 7.09375 -16.363281 7.625 -17.550781 8 -18.78125 C 8.664062 -20.78125 9.289062 -22.785156 9.875 -24.796875 C 10.457031 -26.816406 10.960938 -28.851562 11.390625 -30.90625 C 11.453125 -31.226562 11.535156 -31.5625 11.640625 -31.90625 C 11.753906 -32.195312 11.96875 -32.34375 12.28125 -32.34375 Z M -5.34375 12.84375 C -3.519531 9.507812 -1.859375 6.113281 -0.359375 2.65625 C 1.128906 -0.789062 2.503906 -4.304688 3.765625 -7.890625 C 3.742188 -7.867188 3.722656 -7.835938 3.703125 -7.796875 C 3.640625 -7.753906 3.582031 -7.703125 3.53125 -7.640625 C 3.394531 -7.390625 3.257812 -7.144531 3.125 -6.90625 C 1.476562 -3.851562 -0.0390625 -0.742188 -1.4375 2.421875 C -2.84375 5.585938 -4.179688 8.773438 -5.453125 11.984375 C -5.472656 12.023438 -5.484375 12.054688 -5.484375 12.078125 C -5.535156 12.171875 -5.5625 12.28125 -5.5625 12.40625 C -5.5625 12.539062 -5.488281 12.6875 -5.34375 12.84375 Z M 70.84375 -33.078125 C 70.84375 -32.992188 70.800781 -32.910156 70.71875 -32.828125 C 70.644531 -32.753906 70.5625 -32.695312 70.46875 -32.65625 C 70.375 -32.613281 70.285156 -32.617188 70.203125 -32.671875 C 69.691406 -32.972656 69.148438 -33.175781 68.578125 -33.28125 C 68.015625 -33.394531 67.445312 -33.484375 66.875 -33.546875 C 66.445312 -33.566406 66.03125 -33.613281 65.625 -33.6875 C 64.09375 -33.925781 62.5625 -34.125 61.03125 -34.28125 C 56.007812 -34.6875 50.972656 -34.910156 45.921875 -34.953125 C 41.046875 -35.015625 36.171875 -34.90625 31.296875 -34.625 C 25.804688 -34.351562 20.320312 -33.945312 14.84375 -33.40625 C 9.800781 -32.945312 4.773438 -32.398438 -0.234375 -31.765625 C -0.535156 -31.710938 -0.859375 -31.671875 -1.203125 -31.640625 C -3.109375 -31.378906 -5.015625 -31.101562 -6.921875 -30.8125 C -8.835938 -30.519531 -10.75 -30.160156 -12.65625 -29.734375 C -12.800781 -29.679688 -12.953125 -29.640625 -13.109375 -29.609375 C -13.847656 -29.429688 -14.59375 -29.234375 -15.34375 -29.015625 C -16.09375 -28.804688 -16.8125 -28.523438 -17.5 -28.171875 C -17.59375 -28.117188 -17.695312 -28.078125 -17.8125 -28.046875 C -17.96875 -28.023438 -18.113281 -28.03125 -18.25 -28.0625 C -18.382812 -28.09375 -18.492188 -28.175781 -18.578125 -28.3125 C -18.648438 -28.457031 -18.65625 -28.59375 -18.59375 -28.71875 C -18.539062 -28.84375 -18.445312 -28.941406 -18.3125 -29.015625 C -17.863281 -29.253906 -17.394531 -29.460938 -16.90625 -29.640625 C -15.6875 -30.046875 -14.457031 -30.390625 -13.21875 -30.671875 C -11.976562 -30.960938 -10.726562 -31.210938 -9.46875 -31.421875 C -5.851562 -32.035156 -2.238281 -32.570312 1.375 -33.03125 C 5 -33.488281 8.640625 -33.894531 12.296875 -34.25 C 17.429688 -34.78125 22.570312 -35.203125 27.71875 -35.515625 C 32.195312 -35.804688 36.679688 -35.972656 41.171875 -36.015625 C 44.460938 -36.046875 47.75 -36.015625 51.03125 -35.921875 C 54.320312 -35.828125 57.609375 -35.628906 60.890625 -35.328125 C 63.890625 -35.023438 66.863281 -34.566406 69.8125 -33.953125 C 70.09375 -33.890625 70.347656 -33.796875 70.578125 -33.671875 C 70.773438 -33.523438 70.863281 -33.328125 70.84375 -33.078125 Z M 70.84375 -33.078125 "/></g></g></g><g fill="#5e6697" fill-opacity="1"><g transform="translate(237.781989, 160.018305)"><g><path d="M 10.828125 -6.21875 C 10.671875 -6.070312 10.503906 -5.941406 10.328125 -5.828125 C 9.753906 -5.472656 9.238281 -5.191406 8.78125 -4.984375 C 8.320312 -4.785156 7.785156 -4.578125 7.171875 -4.359375 C 6.242188 -4.085938 5.644531 -4.148438 5.375 -4.546875 C 5.113281 -4.953125 5.070312 -5.507812 5.25 -6.21875 C 5.5 -7.226562 5.644531 -7.96875 5.6875 -8.4375 C 5.726562 -8.914062 5.570312 -9.082031 5.21875 -8.9375 C 4.875 -8.789062 4.238281 -8.300781 3.3125 -7.46875 C 2.019531 -6.351562 0.914062 -5.082031 0 -3.65625 C -0.113281 -3.457031 -0.253906 -3.296875 -0.421875 -3.171875 C -0.597656 -3.046875 -0.804688 -2.984375 -1.046875 -2.984375 C -1.296875 -2.984375 -1.472656 -3.046875 -1.578125 -3.171875 C -1.679688 -3.296875 -1.6875 -3.46875 -1.59375 -3.6875 C -1.0625 -4.84375 -0.519531 -5.988281 0.03125 -7.125 C 0.96875 -9.101562 1.894531 -11.070312 2.8125 -13.03125 C 3.5 -14.488281 4.175781 -15.953125 4.84375 -17.421875 C 5.25 -18.285156 5.648438 -19.148438 6.046875 -20.015625 C 6.078125 -20.085938 6.117188 -20.164062 6.171875 -20.25 C 6.203125 -20.34375 6.238281 -20.4375 6.28125 -20.53125 C 6.332031 -20.632812 6.390625 -20.742188 6.453125 -20.859375 C 6.503906 -20.953125 6.601562 -21.03125 6.75 -21.09375 C 6.90625 -21.15625 7.054688 -21.195312 7.203125 -21.21875 C 7.347656 -21.238281 7.460938 -21.226562 7.546875 -21.1875 C 7.660156 -21.101562 7.722656 -21.015625 7.734375 -20.921875 C 7.742188 -20.835938 7.726562 -20.75 7.6875 -20.65625 C 7.664062 -20.632812 7.65625 -20.601562 7.65625 -20.5625 C 7.476562 -20.039062 7.289062 -19.535156 7.09375 -19.046875 C 5.96875 -16.316406 4.738281 -13.632812 3.40625 -11 C 3.300781 -10.820312 3.1875 -10.609375 3.0625 -10.359375 C 2.863281 -10.003906 2.675781 -9.65625 2.5 -9.3125 C 2.332031 -8.96875 2.273438 -8.738281 2.328125 -8.625 C 2.390625 -8.507812 2.660156 -8.597656 3.140625 -8.890625 C 3.273438 -8.984375 3.398438 -9.082031 3.515625 -9.1875 C 3.890625 -9.425781 4.257812 -9.660156 4.625 -9.890625 C 4.945312 -10.097656 5.304688 -10.210938 5.703125 -10.234375 C 6.628906 -10.296875 7.148438 -9.875 7.265625 -8.96875 C 7.316406 -8.601562 7.304688 -8.242188 7.234375 -7.890625 C 7.160156 -7.535156 7.078125 -7.179688 6.984375 -6.828125 C 6.960938 -6.734375 6.941406 -6.632812 6.921875 -6.53125 C 6.765625 -5.925781 6.804688 -5.578125 7.046875 -5.484375 C 7.296875 -5.398438 7.640625 -5.453125 8.078125 -5.640625 C 8.515625 -5.828125 8.960938 -6.054688 9.421875 -6.328125 C 9.734375 -6.484375 10.003906 -6.617188 10.234375 -6.734375 C 10.472656 -6.847656 10.648438 -6.898438 10.765625 -6.890625 C 10.984375 -6.847656 11.082031 -6.757812 11.0625 -6.625 C 11.039062 -6.488281 10.960938 -6.351562 10.828125 -6.21875 Z M 10.828125 -6.21875 "/></g></g></g><g fill="#5e6697" fill-opacity="1"><g transform="translate(252.062036, 160.018305)"><g><path d="M 5.296875 -5.625 C 4.828125 -5.0625 4.265625 -4.539062 3.609375 -4.0625 C 2.960938 -3.59375 2.226562 -3.273438 1.40625 -3.109375 C 0.59375 -2.953125 -0.0351562 -3.015625 -0.484375 -3.296875 C -0.941406 -3.578125 -1.035156 -4.207031 -0.765625 -5.1875 C -0.410156 -6.207031 0.078125 -7.175781 0.703125 -8.09375 C 0.847656 -8.28125 1.054688 -8.414062 1.328125 -8.5 C 1.515625 -8.539062 1.679688 -8.503906 1.828125 -8.390625 C 1.984375 -8.285156 2.039062 -8.148438 2 -7.984375 C 1.863281 -7.660156 1.71875 -7.335938 1.5625 -7.015625 C 1.40625 -6.691406 1.296875 -6.484375 1.234375 -6.390625 C 0.929688 -5.816406 0.71875 -5.222656 0.59375 -4.609375 C 0.59375 -4.242188 1.066406 -4.21875 2.015625 -4.53125 C 2.960938 -4.84375 3.882812 -5.414062 4.78125 -6.25 C 5.6875 -7.082031 6.117188 -7.328125 6.078125 -6.984375 C 6.035156 -6.640625 5.773438 -6.1875 5.296875 -5.625 Z M 2.96875 -10.09375 C 2.925781 -10.050781 2.835938 -10.003906 2.703125 -9.953125 C 2.566406 -9.910156 2.421875 -9.878906 2.265625 -9.859375 C 2.109375 -9.835938 1.984375 -9.859375 1.890625 -9.921875 C 1.804688 -9.992188 1.800781 -10.140625 1.875 -10.359375 C 2.019531 -10.734375 2.171875 -11.054688 2.328125 -11.328125 C 2.484375 -11.609375 2.6875 -11.921875 2.9375 -12.265625 C 3.09375 -12.410156 3.265625 -12.488281 3.453125 -12.5 C 3.640625 -12.519531 3.796875 -12.472656 3.921875 -12.359375 C 4.046875 -12.253906 4.082031 -12.101562 4.03125 -11.90625 C 3.832031 -11.195312 3.476562 -10.59375 2.96875 -10.09375 Z M 2.96875 -10.09375 "/></g></g></g><g fill="#5e6697" fill-opacity="1"><g transform="translate(261.365144, 160.018305)"><g><path d="M 10.5625 -6.65625 C 10.707031 -6.476562 10.53125 -6.15625 10.03125 -5.6875 C 9.53125 -5.21875 9 -4.820312 8.4375 -4.5 C 7.882812 -4.175781 7.238281 -3.851562 6.5 -3.53125 C 6.007812 -3.320312 5.488281 -3.25 4.9375 -3.3125 C 4.382812 -3.382812 4.109375 -3.71875 4.109375 -4.3125 C 4.109375 -4.914062 4.25 -5.507812 4.53125 -6.09375 C 4.800781 -6.695312 4.859375 -7.007812 4.703125 -7.03125 C 4.546875 -7.050781 4.222656 -6.90625 3.734375 -6.59375 C 2.460938 -5.757812 1.28125 -4.800781 0.1875 -3.71875 C -0.101562 -3.363281 -0.476562 -3.171875 -0.9375 -3.140625 C -1.164062 -3.140625 -1.34375 -3.210938 -1.46875 -3.359375 C -1.601562 -3.503906 -1.617188 -3.660156 -1.515625 -3.828125 C -0.734375 -5.273438 0.0546875 -6.707031 0.859375 -8.125 C 1.035156 -8.414062 1.300781 -8.597656 1.65625 -8.671875 C 1.800781 -8.703125 1.9375 -8.65625 2.0625 -8.53125 C 2.195312 -8.414062 2.265625 -8.28125 2.265625 -8.125 C 2.242188 -7.976562 2.1875 -7.8125 2.09375 -7.625 C 2.050781 -7.507812 2.007812 -7.394531 1.96875 -7.28125 C 1.925781 -7.175781 1.910156 -7.085938 1.921875 -7.015625 C 1.941406 -6.941406 2 -6.921875 2.09375 -6.953125 C 2.226562 -7.023438 2.363281 -7.097656 2.5 -7.171875 C 2.832031 -7.367188 3.15625 -7.554688 3.46875 -7.734375 C 3.75 -7.898438 4.039062 -8.046875 4.34375 -8.171875 C 4.644531 -8.296875 4.957031 -8.378906 5.28125 -8.421875 C 5.8125 -8.453125 6.1875 -8.328125 6.40625 -8.046875 C 6.632812 -7.773438 6.664062 -7.394531 6.5 -6.90625 C 6.320312 -6.46875 6.132812 -6.03125 5.9375 -5.59375 C 5.695312 -5.1875 5.65625 -4.875 5.8125 -4.65625 C 5.976562 -4.445312 6.722656 -4.691406 8.046875 -5.390625 L 9.046875 -5.984375 C 9.992188 -6.585938 10.5 -6.8125 10.5625 -6.65625 Z M 10.5625 -6.65625 "/></g></g></g><g fill="#5e6697" fill-opacity="1"><g transform="translate(275.244901, 160.018305)"><g><path d="M 10.828125 -6.21875 C 10.671875 -6.070312 10.503906 -5.941406 10.328125 -5.828125 C 9.753906 -5.472656 9.238281 -5.191406 8.78125 -4.984375 C 8.320312 -4.785156 7.785156 -4.578125 7.171875 -4.359375 C 6.242188 -4.085938 5.644531 -4.148438 5.375 -4.546875 C 5.113281 -4.953125 5.070312 -5.507812 5.25 -6.21875 C 5.5 -7.226562 5.644531 -7.96875 5.6875 -8.4375 C 5.726562 -8.914062 5.570312 -9.082031 5.21875 -8.9375 C 4.875 -8.789062 4.238281 -8.300781 3.3125 -7.46875 C 2.019531 -6.351562 0.914062 -5.082031 0 -3.65625 C -0.113281 -3.457031 -0.253906 -3.296875 -0.421875 -3.171875 C -0.597656 -3.046875 -0.804688 -2.984375 -1.046875 -2.984375 C -1.296875 -2.984375 -1.472656 -3.046875 -1.578125 -3.171875 C -1.679688 -3.296875 -1.6875 -3.46875 -1.59375 -3.6875 C -1.0625 -4.84375 -0.519531 -5.988281 0.03125 -7.125 C 0.96875 -9.101562 1.894531 -11.070312 2.8125 -13.03125 C 3.5 -14.488281 4.175781 -15.953125 4.84375 -17.421875 C 5.25 -18.285156 5.648438 -19.148438 6.046875 -20.015625 C 6.078125 -20.085938 6.117188 -20.164062 6.171875 -20.25 C 6.203125 -20.34375 6.238281 -20.4375 6.28125 -20.53125 C 6.332031 -20.632812 6.390625 -20.742188 6.453125 -20.859375 C 6.503906 -20.953125 6.601562 -21.03125 6.75 -21.09375 C 6.90625 -21.15625 7.054688 -21.195312 7.203125 -21.21875 C 7.347656 -21.238281 7.460938 -21.226562 7.546875 -21.1875 C 7.660156 -21.101562 7.722656 -21.015625 7.734375 -20.921875 C 7.742188 -20.835938 7.726562 -20.75 7.6875 -20.65625 C 7.664062 -20.632812 7.65625 -20.601562 7.65625 -20.5625 C 7.476562 -20.039062 7.289062 -19.535156 7.09375 -19.046875 C 5.96875 -16.316406 4.738281 -13.632812 3.40625 -11 C 3.300781 -10.820312 3.1875 -10.609375 3.0625 -10.359375 C 2.863281 -10.003906 2.675781 -9.65625 2.5 -9.3125 C 2.332031 -8.96875 2.273438 -8.738281 2.328125 -8.625 C 2.390625 -8.507812 2.660156 -8.597656 3.140625 -8.890625 C 3.273438 -8.984375 3.398438 -9.082031 3.515625 -9.1875 C 3.890625 -9.425781 4.257812 -9.660156 4.625 -9.890625 C 4.945312 -10.097656 5.304688 -10.210938 5.703125 -10.234375 C 6.628906 -10.296875 7.148438 -9.875 7.265625 -8.96875 C 7.316406 -8.601562 7.304688 -8.242188 7.234375 -7.890625 C 7.160156 -7.535156 7.078125 -7.179688 6.984375 -6.828125 C 6.960938 -6.734375 6.941406 -6.632812 6.921875 -6.53125 C 6.765625 -5.925781 6.804688 -5.578125 7.046875 -5.484375 C 7.296875 -5.398438 7.640625 -5.453125 8.078125 -5.640625 C 8.515625 -5.828125 8.960938 -6.054688 9.421875 -6.328125 C 9.734375 -6.484375 10.003906 -6.617188 10.234375 -6.734375 C 10.472656 -6.847656 10.648438 -6.898438 10.765625 -6.890625 C 10.984375 -6.847656 11.082031 -6.757812 11.0625 -6.625 C 11.039062 -6.488281 10.960938 -6.351562 10.828125 -6.21875 Z M 10.828125 -6.21875 "/></g></g></g><g fill="#5e6697" fill-opacity="1"><g transform="translate(289.524948, 160.018305)"><g/></g></g><g fill="#5e6697" fill-opacity="1"><g transform="translate(303.711588, 160.018305)"><g><path d="M 6.484375 -5.796875 L 5.40625 -5.828125 C 4.3125 -5.867188 3.113281 -5.957031 1.8125 -6.09375 C 1.789062 -6.09375 1.773438 -6.113281 1.765625 -6.15625 C 1.722656 -6.15625 1.691406 -6.171875 1.671875 -6.203125 C 1.648438 -6.234375 1.648438 -6.296875 1.671875 -6.390625 C 1.765625 -6.796875 1.910156 -7.007812 2.109375 -7.03125 C 3.148438 -7.175781 4.175781 -7.253906 5.1875 -7.265625 L 5.8125 -7.296875 L 9.921875 -7.296875 C 10.160156 -7.296875 10.382812 -7.28125 10.59375 -7.25 C 10.75 -7.195312 10.769531 -6.96875 10.65625 -6.5625 C 10.53125 -6.15625 10.382812 -5.929688 10.21875 -5.890625 C 10.132812 -5.867188 10.054688 -5.859375 9.984375 -5.859375 L 9.34375 -5.859375 C 8.4375 -5.816406 7.484375 -5.796875 6.484375 -5.796875 Z M 6.484375 -5.796875 "/></g></g></g></svg>